<svg width="52" height="52" viewBox="0 0 52 52" fill="none" xmlns="http://www.w3.org/2000/svg">
<g filter="url(#filter0_di_132_127)">
<circle cx="27" cy="27" r="21" fill="white"/>
</g>
<path d="M28.5998 18.1841C28.5998 17.0832 27.228 16.5808 26.5169 17.4202L23.2992 21.2238C23.1513 21.3983 22.9672 21.5385 22.7597 21.6346C22.5522 21.7308 22.3262 21.7806 22.0975 21.7805H19.1499C18.3145 21.7805 17.5133 22.1124 16.9226 22.7031C16.3319 23.2939 16 24.0951 16 24.9305V28.0804C16 28.9158 16.3319 29.717 16.9226 30.3078C17.5133 30.8985 18.3145 31.2304 19.1499 31.2304H22.0975C22.3263 31.2304 22.5523 31.2804 22.7598 31.3766C22.9674 31.4729 23.1514 31.6133 23.2992 31.7879L26.5169 35.5907C27.2272 36.4301 28.5998 35.9277 28.5998 34.8268V18.1841ZM31.3032 21.1316C31.3885 21.073 31.4844 21.0318 31.5856 21.0103C31.6868 20.9887 31.7913 20.9874 31.893 21.0062C31.9947 21.0251 32.0918 21.0638 32.1785 21.1202C32.2653 21.1766 32.3401 21.2495 32.3986 21.3348C33.5523 23.0122 34.161 24.7399 34.161 26.5054C34.161 28.271 33.5523 29.9987 32.3986 31.6769C32.3405 31.7632 32.2659 31.8372 32.179 31.8945C32.0921 31.9519 31.9948 31.9914 31.8925 32.0109C31.7903 32.0304 31.6852 32.0294 31.5833 32.008C31.4815 31.9866 31.3849 31.9452 31.2991 31.8862C31.2133 31.8273 31.1401 31.7519 31.0836 31.6644C31.0272 31.577 30.9886 31.4792 30.9702 31.3768C30.9518 31.2744 30.9538 31.1693 30.9762 31.0676C30.9987 30.966 31.041 30.8698 31.1008 30.7846C32.1128 29.312 32.5868 27.8898 32.5868 26.5054C32.5868 25.121 32.1128 23.6988 31.1008 22.227C30.9827 22.0549 30.9377 21.8429 30.9758 21.6377C31.0139 21.4324 31.132 21.2507 31.304 21.1324L31.3032 21.1316ZM34.6555 18.0604C34.5807 17.9891 34.4925 17.9332 34.396 17.8959C34.2995 17.8586 34.1966 17.8407 34.0932 17.8432C33.9898 17.8457 33.888 17.8685 33.7934 17.9104C33.6988 17.9523 33.6134 18.0123 33.542 18.0872C33.4707 18.1621 33.4148 18.2503 33.3775 18.3468C33.3402 18.4432 33.3223 18.5461 33.3248 18.6495C33.3273 18.7529 33.3501 18.8548 33.392 18.9494C33.4339 19.044 33.4939 19.1294 33.5688 19.2007C35.4485 20.9907 36.4258 23.7201 36.4258 26.5054C36.4258 29.2916 35.4485 32.0202 33.5688 33.8102C33.4939 33.8815 33.4339 33.9669 33.392 34.0615C33.3501 34.1561 33.3273 34.258 33.3248 34.3614C33.3223 34.4648 33.3402 34.5676 33.3775 34.6641C33.4148 34.7606 33.4707 34.8488 33.542 34.9237C33.6134 34.9985 33.6988 35.0586 33.7934 35.1005C33.888 35.1424 33.9898 35.1652 34.0932 35.1677C34.1966 35.1702 34.2995 35.1523 34.396 35.115C34.4925 35.0777 34.5807 35.0218 34.6555 34.9504C36.9101 32.803 38 29.6263 38 26.5054C38 23.3846 36.9101 20.2079 34.6555 18.0604Z" fill="url(#paint0_linear_132_127)"/>
<defs>
<filter id="filter0_di_132_127" x="0" y="0" width="52" height="52" filterUnits="userSpaceOnUse" color-interpolation-filters="sRGB">
<feFlood flood-opacity="0" result="BackgroundImageFix"/>
<feColorMatrix in="SourceAlpha" type="matrix" values="0 0 0 0 0 0 0 0 0 0 0 0 0 0 0 0 0 0 127 0" result="hardAlpha"/>
<feOffset dx="-1" dy="-1"/>
<feGaussianBlur stdDeviation="2.5"/>
<feComposite in2="hardAlpha" operator="out"/>
<feColorMatrix type="matrix" values="0 0 0 0 0 0 0 0 0 0 0 0 0 0 0 0 0 0 0.1 0"/>
<feBlend mode="normal" in2="BackgroundImageFix" result="effect1_dropShadow_132_127"/>
<feBlend mode="normal" in="SourceGraphic" in2="effect1_dropShadow_132_127" result="shape"/>
<feColorMatrix in="SourceAlpha" type="matrix" values="0 0 0 0 0 0 0 0 0 0 0 0 0 0 0 0 0 0 127 0" result="hardAlpha"/>
<feOffset dx="-1" dy="-1"/>
<feGaussianBlur stdDeviation="2"/>
<feComposite in2="hardAlpha" operator="arithmetic" k2="-1" k3="1"/>
<feColorMatrix type="matrix" values="0 0 0 0 0 0 0 0 0 0 0 0 0 0 0 0 0 0 0.25 0"/>
<feBlend mode="normal" in2="shape" result="effect2_innerShadow_132_127"/>
</filter>
<linearGradient id="paint0_linear_132_127" x1="27" y1="17" x2="27" y2="36.0109" gradientUnits="userSpaceOnUse">
<stop stop-color="#61A257"/>
<stop offset="1" stop-color="#E3F1A9"/>
</linearGradient>
</defs>
</svg>
