<svg width="100" height="100" viewBox="0 0 528 346" fill="none" xmlns="http://www.w3.org/2000/svg">
<path d="M84.3989 101.163C81.3392 97.7206 78.6993 97.7027 73.6993 97.6611C61.8528 97.5623 47.5085 97.4602 38.3906 106.415C33.7503 110.973 30.6371 119.605 27.4964 125.188C23.0327 133.124 16.9914 143.039 16.9914 152.521C16.9914 165.058 24.4773 171.322 32.0681 179.756C35.755 183.853 16.2218 193.818 13.587 195.611C10.1608 197.942 7.62952 198.858 6.92403 202.809C6.19798 206.875 6.33433 211.145 6.0486 215.259C4.49628 237.613 8.11021 264.299 30.5604 275.274C36.3189 278.09 43.9718 277.095 49.1875 280.138C52.1976 281.894 51.065 285.74 51.1329 288.795C51.6325 311.278 76.07 323.072 94.904 326.924C104.035 328.792 113.599 330.031 122.917 330.475C126.143 330.628 129.634 330.775 132.839 330.329C136.691 329.792 139.793 326.871 143.247 325.271C148.661 322.762 155.381 320.755 158.421 315.155C160.471 311.378 162.436 320.053 163.771 321.964C168.563 328.825 177.002 332.318 184.878 334.511C196.365 337.71 210.053 338.967 221.84 340.007C239.934 341.604 257.154 337.565 269.21 323.617C272.856 319.4 276.319 314.955 278.937 310C280.203 307.604 281.675 302.038 284.822 305.185C297.182 317.545 316.402 316.517 333.019 316.517C344.063 316.517 355.957 316.07 366.09 311.167C373.991 307.344 385.677 302.05 389.824 293.756C394.683 284.038 392.754 275.877 387.49 267.298C385.146 263.48 384.727 262.876 389.435 260.49C397.151 256.579 404.988 253.027 408.743 244.683C416.368 227.739 421.48 199.323 406.165 184.814C402.031 180.898 396.375 179.103 391.186 177.13C385.658 175.028 383.264 174.629 382.966 168.23C382.268 153.207 383.356 137.816 378.735 123.243C375.314 112.452 371.729 102.814 362.589 95.4239C353.504 88.079 345.521 82.7789 333.505 82.7789C329.199 82.7789 324.812 82.5096 320.52 82.8275C316.978 83.0898 314.914 86.8115 311.814 87.156C309.729 87.3876 308.105 88.8425 306.173 87.2533C301.165 83.1362 297.614 77.425 292.749 73.1006C284.582 65.8409 271.42 64.395 260.894 64.395C251.864 64.395 242.834 64.395 233.804 64.395C226.296 64.395 219.44 68.2381 212.502 70.912C208.315 72.5261 204.694 75.1717 200.587 76.8941C198.659 77.7025 197.182 77.8027 195.578 79.2772C189.642 84.7311 186.988 81.2111 181.96 75.7755C174.942 68.189 165.712 62.6442 155.114 62.6442C143.491 62.6442 131.957 62.7439 120.583 65.3191C114.043 66.7997 102.683 68.657 97.5302 73.5383C88.9623 81.6553 85.2743 90.6084 85.2743 102.038" stroke="#AADF98" stroke-width="10" stroke-linecap="round"/>
<path d="M424.938 274.496C420.817 279.075 417.935 281.412 417.935 287.822C417.935 292.514 415.924 303.121 419.88 306.498C426.606 312.24 442.397 309.615 450.617 309.513C457.497 309.428 464.568 303.474 466.472 296.674C467.698 292.294 469.489 284.032 467.347 279.749C465.511 276.075 460.243 270.995 455.967 270.995C446.747 270.995 432.104 266.715 424.063 272.745" stroke="#AADF98" stroke-width="10" stroke-linecap="round"/>
<path d="M485.342 246.483C481.825 249.121 484.64 264.3 487.093 267.298C490.708 271.716 499.57 271.232 504.504 271.676C511.065 272.265 516.795 273.288 520.31 267.055C521.905 264.229 523.703 258.307 521.04 255.432C515.911 249.892 511.498 246.512 503.921 244.927C498.896 243.875 493.755 243.095 488.844 244.732" stroke="#AADF98" stroke-width="10" stroke-linecap="round"/>
<path d="M184.068 167.709C184.068 171.276 184.565 173.591 186.43 176.644C186.634 176.977 188.605 179.899 188.686 179.178C188.866 177.55 188.707 175.833 188.707 174.195C188.707 172.106 189.065 166.669 186.387 165.776" stroke="#AADF98" stroke-width="10" stroke-linecap="round"/>
<path d="M219.634 163.843C219.711 166.003 220.265 168.181 221.009 170.201C221.339 171.097 222.421 174.755 223.715 174.99C225.757 175.361 227.366 171.019 227.366 169.47C227.366 165.579 225.148 162.297 220.794 162.297" stroke="#AADF98" stroke-width="10" stroke-linecap="round"/>
<path d="M145.408 223.765C149.575 223.765 153.744 223.71 157.908 223.851C170.776 224.287 184.375 224.128 196.911 227.481C199.114 228.07 201.302 228.804 203.569 229.113C204.013 229.173 204.602 229.068 204.965 229.371C205.673 229.961 207.296 230.337 208.208 230.337C209.192 230.337 209.398 232.046 209.884 232.7C210.725 233.833 214.305 230.462 214.737 230.165C221.123 225.797 227.412 221.054 234.282 217.451C247.996 210.258 262.395 205.165 277.237 200.956" stroke="#AADF98" stroke-width="10" stroke-linecap="round"/>
<path d="M192.52 82.6415C191.404 77.1169 191.588 79.0133 191.66 70.7406C191.766 58.6819 192.259 46.5254 193.313 34.5087C193.423 33.2571 194.461 32.119 194.305 30.8723C194.175 29.8303 180.046 28.6233 178.14 27.3681C174.885 25.2248 174.939 16.3446 176.982 13.2191C179.884 8.78225 183.714 5.82624 189.049 5.31821C191.906 5.0461 194.137 8.1155 195.958 9.91332C198.891 12.809 199.929 13.7363 200.289 17.5167C200.642 21.2328 201.208 24.2462 199.198 27.7648C198.071 29.7359 200.858 25.6418 201.049 25.4507C204.377 22.1224 208.454 19.8107 212.553 17.5828C215.372 16.0511 217.614 14.9406 220.884 14.7729C224.357 14.5948 230.206 12.6235 232.983 15.401C236.646 19.0638 239.019 26.0462 236.686 31.1367C232.98 39.2227 218.037 42.223 209.776 40.1286C206.808 39.3762 204.297 37.6819 202.404 35.3682C201.309 34.0294 201.756 32.2298 200.851 30.8723" stroke="#AADF98" stroke-width="10" stroke-linecap="round"/>
</svg>
