<svg width="42" height="58" viewBox="0 0 42 58" fill="none" xmlns="http://www.w3.org/2000/svg">
<g filter="url(#filter0_i_182_278)">
<circle cx="21" cy="21" r="21" fill="white"/>
</g>
<path d="M13.0684 49.38C13.0684 49.1533 13.1218 48.93 13.2284 48.71C13.3351 48.49 13.4851 48.2967 13.6784 48.13C13.8784 47.9567 14.1151 47.82 14.3884 47.72C14.6618 47.6133 14.9651 47.56 15.2984 47.56C15.6184 47.56 15.9118 47.61 16.1784 47.71C16.4518 47.8033 16.6851 47.9333 16.8784 48.1C17.0718 48.26 17.2251 48.4467 17.3384 48.66C17.4518 48.8667 17.5151 49.08 17.5284 49.3H19.6084V47.22H20.3084V51.89H19.6084V49.92H17.5284C17.5151 50.1467 17.4518 50.3667 17.3384 50.58C17.2318 50.7867 17.0784 50.9733 16.8784 51.14C16.6851 51.3 16.4551 51.43 16.1884 51.53C15.9218 51.63 15.6251 51.68 15.2984 51.68C14.9651 51.68 14.6618 51.63 14.3884 51.53C14.1151 51.4233 13.8784 51.2867 13.6784 51.12C13.4851 50.9467 13.3351 50.7533 13.2284 50.54C13.1218 50.32 13.0684 50.0933 13.0684 49.86V49.38ZM20.3084 52.43V56.35H14.7284V52.43H15.4184V53.69H19.6184V52.43H20.3084ZM16.8484 49.45C16.8484 49.2833 16.8084 49.1267 16.7284 48.98C16.6551 48.8267 16.5484 48.6933 16.4084 48.58C16.2684 48.46 16.1018 48.3667 15.9084 48.3C15.7218 48.2267 15.5184 48.19 15.2984 48.19C15.0784 48.19 14.8718 48.2267 14.6784 48.3C14.4918 48.3667 14.3284 48.46 14.1884 48.58C14.0484 48.6933 13.9384 48.8267 13.8584 48.98C13.7851 49.1267 13.7484 49.2833 13.7484 49.45V49.79C13.7484 49.9567 13.7851 50.1167 13.8584 50.27C13.9384 50.4167 14.0484 50.55 14.1884 50.67C14.3284 50.7833 14.4918 50.8767 14.6784 50.95C14.8718 51.0167 15.0784 51.05 15.2984 51.05C15.5184 51.05 15.7218 51.0167 15.9084 50.95C16.1018 50.8767 16.2684 50.7833 16.4084 50.67C16.5484 50.55 16.6551 50.4167 16.7284 50.27C16.8084 50.1167 16.8484 49.9567 16.8484 49.79V49.45ZM19.6184 55.72V54.31H15.4184V55.72H19.6184ZM24.79 50.41C24.77 50.4833 24.6867 50.5967 24.54 50.75C24.4 50.9033 24.2233 51.0733 24.01 51.26C23.9233 51.34 23.8167 51.43 23.69 51.53C23.57 51.63 23.44 51.7333 23.3 51.84C23.1667 51.9467 23.03 52.0533 22.89 52.16C22.7567 52.2667 22.6333 52.36 22.52 52.44L22.09 51.94C22.39 51.7267 22.69 51.5033 22.99 51.27C23.29 51.03 23.5633 50.79 23.81 50.55C23.93 50.43 24.03 50.3167 24.11 50.21C24.19 50.1033 24.25 49.9967 24.29 49.89C24.3367 49.7833 24.3667 49.6733 24.38 49.56C24.4 49.44 24.41 49.3133 24.41 49.18V48.38H22.35V47.77H27.08V48.38H25.12V49.15C25.12 49.2967 25.1267 49.4267 25.14 49.54C25.1533 49.6533 25.1833 49.7633 25.23 49.87C25.2833 49.9767 25.3567 50.0867 25.45 50.2C25.55 50.3067 25.68 50.43 25.84 50.57C26 50.7033 26.21 50.8667 26.47 51.06C26.73 51.2533 27.0033 51.4467 27.29 51.64L26.88 52.13C26.6733 51.99 26.4633 51.84 26.25 51.68C26.0367 51.52 25.8533 51.38 25.7 51.26C25.4667 51.0667 25.2633 50.8933 25.09 50.74C24.9167 50.5867 24.82 50.4767 24.8 50.41H24.79ZM23.57 53.06H29.45V56.43H28.75V53.68H23.57V53.06ZM29.45 52.52H28.75V50.13H26.84V49.51H28.75V47.22H29.45V52.52Z" fill="#61A257"/>
<path d="M25.999 12C26.2439 12 26.4803 12.09 26.6634 12.2527C26.8464 12.4155 26.9633 12.6397 26.992 12.883L26.999 13V15.17C27.4514 15.0106 27.9354 14.962 28.4105 15.0283C28.8856 15.0946 29.3378 15.2738 29.7293 15.5509C30.1208 15.8281 30.4402 16.1951 30.6606 16.6211C30.8809 17.0472 30.996 17.5198 30.996 17.9995C30.996 18.4792 30.8809 18.9518 30.6606 19.3779C30.4402 19.8039 30.1208 20.1709 29.7293 20.4481C29.3378 20.7252 28.8856 20.9044 28.4105 20.9707C27.9354 21.037 27.4514 20.9884 26.999 20.829V21C26.9988 22.418 26.4966 23.7901 25.5814 24.8732C24.6662 25.9562 23.3971 26.6803 21.999 26.917V29H24.999C25.2539 29.0003 25.499 29.0979 25.6844 29.2728C25.8697 29.4478 25.9812 29.687 25.9962 29.9414C26.0111 30.1958 25.9283 30.4464 25.7647 30.6418C25.6011 30.8373 25.3691 30.9629 25.116 30.993L24.999 31H16.999C16.7441 30.9997 16.499 30.9021 16.3136 30.7272C16.1283 30.5522 16.0168 30.313 16.0018 30.0586C15.9869 29.8042 16.0697 29.5536 16.2333 29.3582C16.3969 29.1627 16.6289 29.0371 16.882 29.007L16.999 29H19.999V26.917C18.639 26.6868 17.3998 25.9952 16.4899 24.9585C15.58 23.9218 15.0549 22.6034 15.003 21.225L14.999 21V20.829C14.5604 20.9843 14.0918 21.0354 13.63 20.9783C13.1683 20.9213 12.7262 20.7576 12.3386 20.5003C11.951 20.243 11.6285 19.899 11.3967 19.4956C11.1649 19.0922 11.0301 18.6405 11.003 18.176L11 18L11.005 17.824C11.032 17.3596 11.1667 16.9078 11.3984 16.5044C11.6301 16.101 11.9524 15.757 12.3399 15.4996C12.7274 15.2421 13.1694 15.0784 13.6311 15.0212C14.0928 14.964 14.5614 15.0149 15 15.17L14.999 13C14.999 12.7348 15.1044 12.4804 15.2919 12.2929C15.4794 12.1054 15.7338 12 15.999 12H25.999ZM13.999 17C13.7338 17 13.4794 17.1054 13.2919 17.2929C13.1044 17.4804 12.999 17.7348 12.999 18C12.999 18.2652 13.1044 18.5196 13.2919 18.7071C13.4794 18.8946 13.7338 19 13.999 19C14.2642 19 14.5186 18.8946 14.7061 18.7071C14.8936 18.5196 14.999 18.2652 14.999 18C14.999 17.7348 14.8936 17.4804 14.7061 17.2929C14.5186 17.1054 14.2642 17 13.999 17ZM27.999 17C27.7338 17 27.4794 17.1054 27.2919 17.2929C27.1044 17.4804 26.999 17.7348 26.999 18C26.999 18.2652 27.1044 18.5196 27.2919 18.7071C27.4794 18.8946 27.7338 19 27.999 19C28.2642 19 28.5186 18.8946 28.7061 18.7071C28.8936 18.5196 28.999 18.2652 28.999 18C28.999 17.7348 28.8936 17.4804 28.7061 17.2929C28.5186 17.1054 28.2642 17 27.999 17Z" fill="url(#paint0_linear_182_278)"/>
<defs>
<filter id="filter0_i_182_278" x="0" y="0" width="44" height="44" filterUnits="userSpaceOnUse" color-interpolation-filters="sRGB">
<feFlood flood-opacity="0" result="BackgroundImageFix"/>
<feBlend mode="normal" in="SourceGraphic" in2="BackgroundImageFix" result="shape"/>
<feColorMatrix in="SourceAlpha" type="matrix" values="0 0 0 0 0 0 0 0 0 0 0 0 0 0 0 0 0 0 127 0" result="hardAlpha"/>
<feOffset dx="2" dy="2"/>
<feGaussianBlur stdDeviation="2"/>
<feComposite in2="hardAlpha" operator="arithmetic" k2="-1" k3="1"/>
<feColorMatrix type="matrix" values="0 0 0 0 0 0 0 0 0 0 0 0 0 0 0 0 0 0 0.2 0"/>
<feBlend mode="normal" in2="shape" result="effect1_innerShadow_182_278"/>
</filter>
<linearGradient id="paint0_linear_182_278" x1="20.998" y1="12" x2="20.998" y2="31" gradientUnits="userSpaceOnUse">
<stop stop-color="#61A257"/>
<stop offset="0.880208" stop-color="#E3F1A9"/>
</linearGradient>
</defs>
</svg>
