<svg width="52" height="64" viewBox="0 0 52 64" fill="none" xmlns="http://www.w3.org/2000/svg">
<g filter="url(#filter0_di_182_275)">
<circle cx="27" cy="27" r="21" fill="white"/>
</g>
<path d="M29.2369 34C30.1019 34 30.5589 35.024 29.9819 35.668C29.6071 36.0875 29.1478 36.4229 28.6343 36.6525C28.1207 36.8821 27.5644 37.0005 27.0019 37C26.4394 37.0005 25.8831 36.8821 25.3695 36.6525C24.856 36.4229 24.3967 36.0875 24.0219 35.668C23.4699 35.052 23.8639 34.089 24.6559 34.007L24.7659 34.001L29.2369 34ZM27.0019 17C28.3599 17 29.5079 17.903 29.8769 19.141L29.9229 19.312L29.9309 19.355C31.0333 19.9769 31.9727 20.8511 32.6721 21.906C33.3716 22.9609 33.8112 24.1665 33.9549 25.424L33.9829 25.711L34.0019 26V28.931L34.0229 29.067C34.1598 29.8038 34.5676 30.4627 35.1659 30.914L35.3329 31.031L35.4949 31.13C36.3549 31.617 36.0549 32.896 35.1179 32.994L35.0019 33H19.0019C17.9739 33 17.6149 31.636 18.5089 31.13C18.8899 30.9144 19.2191 30.618 19.4734 30.2616C19.7277 29.9052 19.9009 29.4974 19.9809 29.067L20.0019 28.924L20.0029 25.954C20.0639 24.6479 20.4441 23.3766 21.1102 22.2515C21.7763 21.1263 22.7081 20.1816 23.8239 19.5L24.0719 19.354L24.0819 19.311C24.2234 18.713 24.5448 18.1728 25.003 17.7633C25.4611 17.3538 26.0339 17.0947 26.6439 17.021L26.8259 17.004L27.0019 17Z" fill="url(#paint0_linear_182_275)"/>
<path d="M20.2484 57.49C19.9218 57.49 19.6218 57.44 19.3484 57.34C19.0751 57.24 18.8418 57.1067 18.6484 56.94C18.4551 56.7733 18.3018 56.58 18.1884 56.36C18.0818 56.14 18.0284 55.91 18.0284 55.67V55.23C18.0284 54.99 18.0818 54.76 18.1884 54.54C18.3018 54.32 18.4551 54.1267 18.6484 53.96C18.8418 53.7933 19.0751 53.66 19.3484 53.56C19.6218 53.46 19.9218 53.41 20.2484 53.41C20.5751 53.41 20.8751 53.46 21.1484 53.56C21.4218 53.66 21.6551 53.7933 21.8484 53.96C22.0418 54.1267 22.1918 54.32 22.2984 54.54C22.4118 54.76 22.4684 54.99 22.4684 55.23V55.67C22.4684 55.91 22.4118 56.14 22.2984 56.36C22.1918 56.58 22.0418 56.7733 21.8484 56.94C21.6551 57.1067 21.4218 57.24 21.1484 57.34C20.8751 57.44 20.5751 57.49 20.2484 57.49ZM24.9284 58.28V60.63H20.1084V61.79H25.1684V62.39H19.4184V60.04H24.2384V58.89H19.3684V58.28H24.9284ZM20.2484 54.04C20.0218 54.04 19.8151 54.0733 19.6284 54.14C19.4418 54.2067 19.2784 54.2967 19.1384 54.41C19.0051 54.5233 18.8984 54.6567 18.8184 54.81C18.7451 54.9633 18.7084 55.1233 18.7084 55.29V55.61C18.7084 55.7833 18.7451 55.9467 18.8184 56.1C18.8984 56.2467 19.0051 56.3767 19.1384 56.49C19.2718 56.6033 19.4318 56.6933 19.6184 56.76C19.8118 56.8267 20.0218 56.86 20.2484 56.86C20.4751 56.86 20.6818 56.8267 20.8684 56.76C21.0618 56.6933 21.2251 56.6033 21.3584 56.49C21.4918 56.3767 21.5951 56.2467 21.6684 56.1C21.7484 55.9467 21.7884 55.7833 21.7884 55.61V55.29C21.7884 55.1233 21.7484 54.9633 21.6684 54.81C21.5951 54.6567 21.4884 54.5233 21.3484 54.41C21.2151 54.2967 21.0551 54.2067 20.8684 54.14C20.6818 54.0733 20.4751 54.04 20.2484 54.04ZM24.9284 55.09H26.3284V55.71H24.9284V57.74H24.2284V53.22H24.9284V55.09ZM34.4 58.61H33.7V53.22H34.4V58.61ZM28.81 59.15H34.4V62.35H28.81V59.15ZM29.49 61.72H33.72V59.78H29.49V61.72ZM28.19 57.47C28.71 57.47 29.1733 57.4667 29.58 57.46C29.9933 57.4533 30.37 57.4433 30.71 57.43C31.05 57.4167 31.3667 57.4 31.66 57.38C31.96 57.3533 32.26 57.3233 32.56 57.29L32.62 57.9C32.3467 57.9333 32.0533 57.9633 31.74 57.99C31.4267 58.0167 31.0667 58.0367 30.66 58.05C30.26 58.0633 29.8033 58.0733 29.29 58.08C28.7767 58.0867 28.18 58.09 27.5 58.09V55.57H30.77V54.28H27.5V53.66H31.46V56.17H28.19V57.47Z" fill="#9C9C9C"/>
<defs>
<filter id="filter0_di_182_275" x="0" y="0" width="52" height="52" filterUnits="userSpaceOnUse" color-interpolation-filters="sRGB">
<feFlood flood-opacity="0" result="BackgroundImageFix"/>
<feColorMatrix in="SourceAlpha" type="matrix" values="0 0 0 0 0 0 0 0 0 0 0 0 0 0 0 0 0 0 127 0" result="hardAlpha"/>
<feOffset dx="-1" dy="-1"/>
<feGaussianBlur stdDeviation="2.5"/>
<feComposite in2="hardAlpha" operator="out"/>
<feColorMatrix type="matrix" values="0 0 0 0 0 0 0 0 0 0 0 0 0 0 0 0 0 0 0.1 0"/>
<feBlend mode="normal" in2="BackgroundImageFix" result="effect1_dropShadow_182_275"/>
<feBlend mode="normal" in="SourceGraphic" in2="effect1_dropShadow_182_275" result="shape"/>
<feColorMatrix in="SourceAlpha" type="matrix" values="0 0 0 0 0 0 0 0 0 0 0 0 0 0 0 0 0 0 127 0" result="hardAlpha"/>
<feOffset dx="-1" dy="-1"/>
<feGaussianBlur stdDeviation="2"/>
<feComposite in2="hardAlpha" operator="arithmetic" k2="-1" k3="1"/>
<feColorMatrix type="matrix" values="0 0 0 0 0 0 0 0 0 0 0 0 0 0 0 0 0 0 0.25 0"/>
<feBlend mode="normal" in2="shape" result="effect2_innerShadow_182_275"/>
</filter>
<linearGradient id="paint0_linear_182_275" x1="27.0019" y1="17" x2="27.0019" y2="37" gradientUnits="userSpaceOnUse">
<stop stop-color="#C0C0C0"/>
<stop offset="1" stop-color="#D9D9D9"/>
</linearGradient>
</defs>
</svg>
