<svg width="42" height="58" viewBox="0 0 42 58" fill="none" xmlns="http://www.w3.org/2000/svg">
<g filter="url(#filter0_i_182_280)">
<circle cx="21" cy="21" r="21" fill="white"/>
</g>
<path d="M14.2484 51.49C13.9218 51.49 13.6218 51.44 13.3484 51.34C13.0751 51.24 12.8418 51.1067 12.6484 50.94C12.4551 50.7733 12.3018 50.58 12.1884 50.36C12.0818 50.14 12.0284 49.91 12.0284 49.67V49.23C12.0284 48.99 12.0818 48.76 12.1884 48.54C12.3018 48.32 12.4551 48.1267 12.6484 47.96C12.8418 47.7933 13.0751 47.66 13.3484 47.56C13.6218 47.46 13.9218 47.41 14.2484 47.41C14.5751 47.41 14.8751 47.46 15.1484 47.56C15.4218 47.66 15.6551 47.7933 15.8484 47.96C16.0418 48.1267 16.1918 48.32 16.2984 48.54C16.4118 48.76 16.4684 48.99 16.4684 49.23V49.67C16.4684 49.91 16.4118 50.14 16.2984 50.36C16.1918 50.58 16.0418 50.7733 15.8484 50.94C15.6551 51.1067 15.4218 51.24 15.1484 51.34C14.8751 51.44 14.5751 51.49 14.2484 51.49ZM18.9284 52.28V54.63H14.1084V55.79H19.1684V56.39H13.4184V54.04H18.2384V52.89H13.3684V52.28H18.9284ZM14.2484 48.04C14.0218 48.04 13.8151 48.0733 13.6284 48.14C13.4418 48.2067 13.2784 48.2967 13.1384 48.41C13.0051 48.5233 12.8984 48.6567 12.8184 48.81C12.7451 48.9633 12.7084 49.1233 12.7084 49.29V49.61C12.7084 49.7833 12.7451 49.9467 12.8184 50.1C12.8984 50.2467 13.0051 50.3767 13.1384 50.49C13.2718 50.6033 13.4318 50.6933 13.6184 50.76C13.8118 50.8267 14.0218 50.86 14.2484 50.86C14.4751 50.86 14.6818 50.8267 14.8684 50.76C15.0618 50.6933 15.2251 50.6033 15.3584 50.49C15.4918 50.3767 15.5951 50.2467 15.6684 50.1C15.7484 49.9467 15.7884 49.7833 15.7884 49.61V49.29C15.7884 49.1233 15.7484 48.9633 15.6684 48.81C15.5951 48.6567 15.4884 48.5233 15.3484 48.41C15.2151 48.2967 15.0551 48.2067 14.8684 48.14C14.6818 48.0733 14.4751 48.04 14.2484 48.04ZM18.9284 49.09H20.3284V49.71H18.9284V51.74H18.2284V47.22H18.9284V49.09ZM28.4 52.61H27.7V47.22H28.4V52.61ZM22.81 53.15H28.4V56.35H22.81V53.15ZM23.49 55.72H27.72V53.78H23.49V55.72ZM22.19 51.47C22.71 51.47 23.1733 51.4667 23.58 51.46C23.9933 51.4533 24.37 51.4433 24.71 51.43C25.05 51.4167 25.3667 51.4 25.66 51.38C25.96 51.3533 26.26 51.3233 26.56 51.29L26.62 51.9C26.3467 51.9333 26.0533 51.9633 25.74 51.99C25.4267 52.0167 25.0667 52.0367 24.66 52.05C24.26 52.0633 23.8033 52.0733 23.29 52.08C22.7767 52.0867 22.18 52.09 21.5 52.09V49.57H24.77V48.28H21.5V47.66H25.46V50.17H22.19V51.47Z" fill="#61A257"/>
<path d="M23.2369 28C24.1019 28 24.5589 29.024 23.9819 29.668C23.6071 30.0875 23.1478 30.4229 22.6343 30.6525C22.1207 30.8821 21.5644 31.0005 21.0019 31C20.4394 31.0005 19.8831 30.8821 19.3695 30.6525C18.856 30.4229 18.3967 30.0875 18.0219 29.668C17.4699 29.052 17.8639 28.089 18.6559 28.007L18.7659 28.001L23.2369 28ZM21.0019 11C22.3599 11 23.5079 11.903 23.8769 13.141L23.9229 13.312L23.9309 13.355C25.0333 13.9769 25.9727 14.8511 26.6721 15.906C27.3716 16.9609 27.8112 18.1665 27.9549 19.424L27.9829 19.711L28.0019 20V22.931L28.0229 23.067C28.1598 23.8038 28.5676 24.4627 29.1659 24.914L29.3329 25.031L29.4949 25.13C30.3549 25.617 30.0549 26.896 29.1179 26.994L29.0019 27H13.0019C11.9739 27 11.6149 25.636 12.5089 25.13C12.8899 24.9144 13.2191 24.618 13.4734 24.2616C13.7277 23.9052 13.9009 23.4974 13.9809 23.067L14.0019 22.924L14.0029 19.954C14.0639 18.6479 14.4441 17.3766 15.1102 16.2515C15.7763 15.1263 16.7081 14.1816 17.8239 13.5L18.0719 13.354L18.0819 13.311C18.2234 12.713 18.5448 12.1728 19.003 11.7633C19.4611 11.3538 20.0339 11.0947 20.6439 11.021L20.8259 11.004L21.0019 11Z" fill="url(#paint0_linear_182_280)"/>
<defs>
<filter id="filter0_i_182_280" x="0" y="0" width="44" height="44" filterUnits="userSpaceOnUse" color-interpolation-filters="sRGB">
<feFlood flood-opacity="0" result="BackgroundImageFix"/>
<feBlend mode="normal" in="SourceGraphic" in2="BackgroundImageFix" result="shape"/>
<feColorMatrix in="SourceAlpha" type="matrix" values="0 0 0 0 0 0 0 0 0 0 0 0 0 0 0 0 0 0 127 0" result="hardAlpha"/>
<feOffset dx="2" dy="2"/>
<feGaussianBlur stdDeviation="2"/>
<feComposite in2="hardAlpha" operator="arithmetic" k2="-1" k3="1"/>
<feColorMatrix type="matrix" values="0 0 0 0 0 0 0 0 0 0 0 0 0 0 0 0 0 0 0.2 0"/>
<feBlend mode="normal" in2="shape" result="effect1_innerShadow_182_280"/>
</filter>
<linearGradient id="paint0_linear_182_280" x1="21.0019" y1="11" x2="21.0019" y2="31" gradientUnits="userSpaceOnUse">
<stop stop-color="#61A257"/>
<stop offset="0.880208" stop-color="#E3F1A9"/>
</linearGradient>
</defs>
</svg>
