<svg width="16" height="27" viewBox="0 0 16 27" fill="none" xmlns="http://www.w3.org/2000/svg">
<path d="M12.8295 26.4657L0.405552 14.4974C0.258087 14.3549 0.153387 14.2005 0.0914512 14.0343C0.0295158 13.8681 -0.00096006 13.69 2.30417e-05 13.5C2.30417e-05 13.31 0.0304989 13.1319 0.0914512 12.9657C0.152403 12.7995 0.257104 12.6451 0.405552 12.5026L12.8295 0.498681C13.1736 0.166227 13.6037 0 14.1198 0C14.6359 0 15.0783 0.1781 15.447 0.534301C15.8157 0.890501 16 1.30607 16 1.781C16 2.25594 15.8157 2.6715 15.447 3.0277L4.60831 13.5L15.447 23.9723C15.7911 24.3048 15.9631 24.7146 15.9631 25.2019C15.9631 25.6892 15.7788 26.1104 15.4101 26.4657C15.0415 26.8219 14.6114 27 14.1198 27C13.6283 27 13.1982 26.8219 12.8295 26.4657Z" fill="#61A257"/>
</svg>
