<svg width="16" height="29" viewBox="0 0 16 29" fill="none" xmlns="http://www.w3.org/2000/svg">
<path d="M0.554272 28.4269C0.184757 28.0448 0 27.5924 0 27.0697C0 26.547 0.184757 26.0952 0.554272 25.7141L11.381 14.5191L0.51732 3.2859C0.17244 2.92929 0 2.48353 0 1.94862C0 1.4137 0.184757 0.955204 0.554272 0.573123C0.923786 0.191041 1.36129 0 1.86679 0C2.37228 0 2.8093 0.191041 3.17782 0.573123L15.5935 13.4493C15.7413 13.6021 15.8463 13.7677 15.9083 13.946C15.9704 14.1243 16.001 14.3153 16 14.5191C16 14.7229 15.9689 14.9139 15.9069 15.0922C15.8448 15.2705 15.7403 15.4361 15.5935 15.5889L3.14087 28.4651C2.79599 28.8217 2.3708 29 1.86531 29C1.35981 29 0.922801 28.809 0.554272 28.4269Z" fill="#61A257"/>
</svg>
