<svg width="14" height="17" viewBox="0 0 14 17" fill="none" xmlns="http://www.w3.org/2000/svg">
<path d="M1.64706 17C1.19412 17 0.806236 16.8334 0.483413 16.5002C0.16059 16.167 -0.000547621 15.7669 1.39818e-06 15.3V3.4H1.64706V15.3H10.7059V17H1.64706ZM4.94118 13.6C4.48824 13.6 4.10035 13.4334 3.77753 13.1002C3.45471 12.767 3.29357 12.3669 3.29412 11.9V1.7C3.29412 1.2325 3.45553 0.832151 3.77835 0.498951C4.10118 0.165751 4.48878 -0.000565223 4.94118 1.44312e-06H12.3529C12.8059 1.44312e-06 13.1938 0.166601 13.5166 0.499801C13.8394 0.833001 14.0005 1.23307 14 1.7V11.9C14 12.3675 13.8386 12.7678 13.5158 13.1011C13.1929 13.4342 12.8053 13.6006 12.3529 13.6H4.94118ZM4.94118 11.9H12.3529V1.7H4.94118V11.9Z" fill="#909090"/>
</svg>
