<svg width="203" height="59" viewBox="0 0 203 59" fill="none" xmlns="http://www.w3.org/2000/svg">
<g filter="url(#filter0_d_28_410)">
<rect x="4" width="195" height="51" rx="25.5" fill="#AADF98"/>
</g>
<path d="M76.8528 18.708V19.608C76.8528 21.93 73.9908 23.874 71.0208 24.324L71.6148 25.53C74.9988 24.954 78.1668 22.722 78.1668 19.608V18.708H76.8528ZM77.1228 18.708V19.608C77.1228 22.686 80.3088 24.954 83.6568 25.53L84.2508 24.324C81.3168 23.874 78.4188 21.876 78.4188 19.608V18.708H77.1228ZM76.8528 28.212V34.404H78.3288V28.212H76.8528ZM70.2828 27.294V28.536H84.9888V27.294H70.2828ZM95.5174 22.344V23.586H99.1894V22.344H95.5174ZM98.7214 18.132V27.834H100.215V18.132H98.7214ZM94.8694 28.32C91.5034 28.32 89.4334 29.454 89.4334 31.362C89.4334 33.288 91.5034 34.386 94.8694 34.386C98.2174 34.386 100.287 33.288 100.287 31.362C100.287 29.454 98.2174 28.32 94.8694 28.32ZM94.8694 29.49C97.3174 29.49 98.8114 30.174 98.8114 31.362C98.8114 32.532 97.3174 33.216 94.8694 33.216C92.4214 33.216 90.9274 32.532 90.9274 31.362C90.9274 30.174 92.4214 29.49 94.8694 29.49ZM90.9814 19.77V21.084C90.9814 23.424 89.3074 25.602 86.8954 26.484L87.6694 27.672C90.3694 26.664 92.2054 24.09 92.2054 21.084V19.77H90.9814ZM91.2694 19.77V21.084C91.2694 23.82 93.0154 26.268 95.6614 27.222L96.4174 26.034C94.0594 25.206 92.4754 23.19 92.4754 21.084V19.77H91.2694ZM87.3454 19.32V20.544H96.0394V19.32H87.3454ZM114.416 18.132V34.404H115.91V18.132H114.416ZM115.55 24.81V26.07H118.574V24.81H115.55ZM103.31 20.724V21.948H112.904V20.724H103.31ZM108.17 23.298C105.884 23.298 104.21 24.846 104.21 27.042C104.21 29.238 105.884 30.786 108.17 30.786C110.474 30.786 112.13 29.238 112.13 27.042C112.13 24.846 110.474 23.298 108.17 23.298ZM108.17 24.54C109.646 24.54 110.708 25.566 110.708 27.042C110.708 28.5 109.646 29.544 108.17 29.544C106.694 29.544 105.632 28.5 105.632 27.042C105.632 25.566 106.694 24.54 108.17 24.54ZM107.396 18.33V21.282H108.89V18.33H107.396ZM131.803 18.132V34.404H133.297V18.132H131.803ZM127.033 19.878V20.13C127.033 24.45 124.855 27.906 120.157 30.174L120.949 31.38C126.385 28.716 128.509 24.594 128.509 19.878H127.033ZM120.895 19.878V21.102H127.681V19.878H120.895Z" fill="black"/>
<defs>
<filter id="filter0_d_28_410" x="0" y="0" width="203" height="59" filterUnits="userSpaceOnUse" color-interpolation-filters="sRGB">
<feFlood flood-opacity="0" result="BackgroundImageFix"/>
<feColorMatrix in="SourceAlpha" type="matrix" values="0 0 0 0 0 0 0 0 0 0 0 0 0 0 0 0 0 0 127 0" result="hardAlpha"/>
<feOffset dy="4"/>
<feGaussianBlur stdDeviation="2"/>
<feComposite in2="hardAlpha" operator="out"/>
<feColorMatrix type="matrix" values="0 0 0 0 0 0 0 0 0 0 0 0 0 0 0 0 0 0 0.1 0"/>
<feBlend mode="normal" in2="BackgroundImageFix" result="effect1_dropShadow_28_410"/>
<feBlend mode="normal" in="SourceGraphic" in2="effect1_dropShadow_28_410" result="shape"/>
</filter>
</defs>
</svg>
