<svg width="100" height="26" viewBox="0 0 100 26" fill="none" xmlns="http://www.w3.org/2000/svg">
<g filter="url(#filter0_i_363_9)">
<rect width="100" height="26" rx="13" fill="#AADF98"/>
</g>
<path d="M10 18.9091V17C10 16.6137 10.0995 16.2584 10.2986 15.9343C10.4977 15.6102 10.7618 15.3632 11.0909 15.1932C11.7955 14.8409 12.5114 14.5766 13.2386 14.4002C13.9659 14.2239 14.7045 14.1359 15.4545 14.1364C16.2045 14.1364 16.9432 14.2246 17.6705 14.4009C18.3977 14.5773 19.1136 14.8414 19.8182 15.1932C20.1477 15.3637 20.412 15.6109 20.6111 15.935C20.8102 16.2591 20.9095 16.6141 20.9091 17V18.9091H10ZM22.2727 18.9091V16.8637C22.2727 16.3637 22.1334 15.8834 21.8548 15.423C21.5761 14.9625 21.1814 14.5677 20.6705 14.2387C21.25 14.3068 21.7955 14.4234 22.3068 14.5884C22.8182 14.7534 23.2955 14.955 23.7386 15.1932C24.1477 15.4205 24.4602 15.6732 24.6761 15.9514C24.892 16.2296 25 16.5337 25 16.8637V18.9091H22.2727ZM15.4545 13.4546C14.7045 13.4546 14.0625 13.1875 13.5284 12.6534C12.9943 12.1193 12.7273 11.4773 12.7273 10.7273C12.7273 9.97729 12.9943 9.33524 13.5284 8.80115C14.0625 8.26706 14.7045 8.00002 15.4545 8.00002C16.2045 8.00002 16.8466 8.26706 17.3807 8.80115C17.9148 9.33524 18.1818 9.97729 18.1818 10.7273C18.1818 11.4773 17.9148 12.1193 17.3807 12.6534C16.8466 13.1875 16.2045 13.4546 15.4545 13.4546ZM22.2727 10.7273C22.2727 11.4773 22.0057 12.1193 21.4716 12.6534C20.9375 13.1875 20.2955 13.4546 19.5455 13.4546C19.4205 13.4546 19.2614 13.4402 19.0682 13.4116C18.875 13.383 18.7159 13.3518 18.5909 13.3182C18.8977 12.9546 19.1336 12.5512 19.2986 12.108C19.4636 11.6648 19.5459 11.2046 19.5455 10.7273C19.5455 10.25 19.4632 9.78979 19.2986 9.34661C19.1341 8.90343 18.8982 8.50002 18.5909 8.13638C18.75 8.07956 18.9091 8.04252 19.0682 8.02524C19.2273 8.00797 19.3864 7.99956 19.5455 8.00002C20.2955 8.00002 20.9375 8.26706 21.4716 8.80115C22.0057 9.33524 22.2727 9.97729 22.2727 10.7273Z" fill="white"/>
<path d="M36.1598 8.75V15.43H36.9998V8.75H36.1598ZM31.1898 16.9V17.58H37.2698V16.9H31.1898ZM31.1898 14.8V17.26H32.0098V14.8H31.1898ZM32.0398 10.47V10.85C32.0398 12.1 31.1098 13.24 29.7698 13.68L30.1798 14.33C31.6898 13.81 32.7198 12.47 32.7198 10.85V10.47H32.0398ZM32.1798 10.47V10.85C32.1798 12.4 33.2198 13.68 34.7498 14.17L35.1498 13.52C33.7998 13.1 32.8598 12.03 32.8598 10.85V10.47H32.1798ZM29.9798 9.95V10.62H34.8998V9.95H29.9798ZM32.0398 8.78V10.27H32.8598V8.78H32.0398ZM39.8091 9.33V10H45.4591V9.33H39.8091ZM38.7891 13.21V13.89H46.9591V13.21H38.7891ZM42.4391 13.66V17.79H43.2691V13.66H42.4391ZM45.0691 9.33V10.11C45.0691 11.02 45.0691 12.07 44.7191 13.53L45.5391 13.64C45.8791 12.11 45.8791 11.05 45.8791 10.11V9.33H45.0691ZM51.8408 9.11V12.19H57.9208V9.11H51.8408ZM57.1008 9.78V11.52H52.6508V9.78H57.1008ZM50.7908 13.32V13.99H58.9608V13.32H50.7908ZM54.4708 12.01V13.57H55.2908V12.01H54.4708ZM51.7008 14.92V15.6H57.1208V17.78H57.9508V14.92H51.7008ZM59.99 13.71V14.39H68.19V13.71H59.99ZM61.03 8.97V9.62H66.32V10.55H61.05V12.38H61.87V11.16H67.13V8.97H61.03ZM61.05 12.11V12.76H67.33V12.11H61.05ZM63.67 12.45V14.05H64.5V12.45H63.67ZM60.9 15.08V15.76H66.36V17.7H67.19V15.08H60.9ZM72.0117 15.94V16.63H80.2017V15.94H72.0117ZM75.6717 13.78V16.14H76.5017V13.78H75.6717ZM72.9717 9.38V14H79.2217V9.38H78.4017V10.99H73.7917V9.38H72.9717ZM73.7917 11.66H78.4017V13.32H73.7917V11.66ZM87.7909 8.74V17.78H88.6209V8.74H87.7909ZM85.1409 9.71V9.85C85.1409 12.25 83.9309 14.17 81.3209 15.43L81.7609 16.1C84.7809 14.62 85.9609 12.33 85.9609 9.71H85.1409ZM81.7309 9.71V10.39H85.5009V9.71H81.7309Z" fill="white"/>
<defs>
<filter id="filter0_i_363_9" x="-1" y="-1" width="101" height="27" filterUnits="userSpaceOnUse" color-interpolation-filters="sRGB">
<feFlood flood-opacity="0" result="BackgroundImageFix"/>
<feBlend mode="normal" in="SourceGraphic" in2="BackgroundImageFix" result="shape"/>
<feColorMatrix in="SourceAlpha" type="matrix" values="0 0 0 0 0 0 0 0 0 0 0 0 0 0 0 0 0 0 127 0" result="hardAlpha"/>
<feOffset dx="-1" dy="-1"/>
<feGaussianBlur stdDeviation="2"/>
<feComposite in2="hardAlpha" operator="arithmetic" k2="-1" k3="1"/>
<feColorMatrix type="matrix" values="0 0 0 0 0 0 0 0 0 0 0 0 0 0 0 0 0 0 0.1 0"/>
<feBlend mode="normal" in2="shape" result="effect1_innerShadow_363_9"/>
</filter>
</defs>
</svg>
