<svg width="52" height="64" viewBox="0 0 52 64" fill="none" xmlns="http://www.w3.org/2000/svg">
<g filter="url(#filter0_di_182_273)">
<circle cx="27" cy="27" r="21" fill="white"/>
</g>
<path d="M31.999 18C32.2439 18 32.4803 18.09 32.6634 18.2527C32.8464 18.4155 32.9633 18.6397 32.992 18.883L32.999 19V21.17C33.4514 21.0106 33.9354 20.962 34.4105 21.0283C34.8856 21.0946 35.3378 21.2738 35.7293 21.5509C36.1208 21.8281 36.4402 22.1951 36.6606 22.6211C36.8809 23.0472 36.996 23.5198 36.996 23.9995C36.996 24.4792 36.8809 24.9518 36.6606 25.3779C36.4402 25.8039 36.1208 26.1709 35.7293 26.4481C35.3378 26.7252 34.8856 26.9044 34.4105 26.9707C33.9354 27.037 33.4514 26.9884 32.999 26.829V27C32.9988 28.418 32.4966 29.7901 31.5814 30.8732C30.6662 31.9562 29.3971 32.6803 27.999 32.917V35H30.999C31.2539 35.0003 31.499 35.0979 31.6844 35.2728C31.8697 35.4478 31.9812 35.687 31.9962 35.9414C32.0111 36.1958 31.9283 36.4464 31.7647 36.6418C31.6011 36.8373 31.3691 36.9629 31.116 36.993L30.999 37H22.999C22.7441 36.9997 22.499 36.9021 22.3136 36.7272C22.1283 36.5522 22.0168 36.313 22.0018 36.0586C21.9869 35.8042 22.0697 35.5536 22.2333 35.3582C22.3969 35.1627 22.6289 35.0371 22.882 35.007L22.999 35H25.999V32.917C24.639 32.6868 23.3998 31.9952 22.4899 30.9585C21.58 29.9218 21.0549 28.6034 21.003 27.225L20.999 27V26.829C20.5604 26.9843 20.0918 27.0354 19.63 26.9783C19.1683 26.9213 18.7262 26.7576 18.3386 26.5003C17.951 26.243 17.6285 25.899 17.3967 25.4956C17.1649 25.0922 17.0301 24.6405 17.003 24.176L17 24L17.005 23.824C17.032 23.3596 17.1667 22.9078 17.3984 22.5044C17.6301 22.101 17.9524 21.757 18.3399 21.4996C18.7274 21.2421 19.1694 21.0784 19.6311 21.0212C20.0928 20.964 20.5614 21.0149 21 21.17L20.999 19C20.999 18.7348 21.1044 18.4804 21.2919 18.2929C21.4794 18.1054 21.7338 18 21.999 18H31.999ZM19.999 23C19.7338 23 19.4794 23.1054 19.2919 23.2929C19.1044 23.4804 18.999 23.7348 18.999 24C18.999 24.2652 19.1044 24.5196 19.2919 24.7071C19.4794 24.8946 19.7338 25 19.999 25C20.2642 25 20.5186 24.8946 20.7061 24.7071C20.8936 24.5196 20.999 24.2652 20.999 24C20.999 23.7348 20.8936 23.4804 20.7061 23.2929C20.5186 23.1054 20.2642 23 19.999 23ZM33.999 23C33.7338 23 33.4794 23.1054 33.2919 23.2929C33.1044 23.4804 32.999 23.7348 32.999 24C32.999 24.2652 33.1044 24.5196 33.2919 24.7071C33.4794 24.8946 33.7338 25 33.999 25C34.2642 25 34.5186 24.8946 34.7061 24.7071C34.8936 24.5196 34.999 24.2652 34.999 24C34.999 23.7348 34.8936 23.4804 34.7061 23.2929C34.5186 23.1054 34.2642 23 33.999 23Z" fill="url(#paint0_linear_182_273)"/>
<path d="M19.0684 55.38C19.0684 55.1533 19.1218 54.93 19.2284 54.71C19.3351 54.49 19.4851 54.2967 19.6784 54.13C19.8784 53.9567 20.1151 53.82 20.3884 53.72C20.6618 53.6133 20.9651 53.56 21.2984 53.56C21.6184 53.56 21.9118 53.61 22.1784 53.71C22.4518 53.8033 22.6851 53.9333 22.8784 54.1C23.0718 54.26 23.2251 54.4467 23.3384 54.66C23.4518 54.8667 23.5151 55.08 23.5284 55.3H25.6084V53.22H26.3084V57.89H25.6084V55.92H23.5284C23.5151 56.1467 23.4518 56.3667 23.3384 56.58C23.2318 56.7867 23.0784 56.9733 22.8784 57.14C22.6851 57.3 22.4551 57.43 22.1884 57.53C21.9218 57.63 21.6251 57.68 21.2984 57.68C20.9651 57.68 20.6618 57.63 20.3884 57.53C20.1151 57.4233 19.8784 57.2867 19.6784 57.12C19.4851 56.9467 19.3351 56.7533 19.2284 56.54C19.1218 56.32 19.0684 56.0933 19.0684 55.86V55.38ZM26.3084 58.43V62.35H20.7284V58.43H21.4184V59.69H25.6184V58.43H26.3084ZM22.8484 55.45C22.8484 55.2833 22.8084 55.1267 22.7284 54.98C22.6551 54.8267 22.5484 54.6933 22.4084 54.58C22.2684 54.46 22.1018 54.3667 21.9084 54.3C21.7218 54.2267 21.5184 54.19 21.2984 54.19C21.0784 54.19 20.8718 54.2267 20.6784 54.3C20.4918 54.3667 20.3284 54.46 20.1884 54.58C20.0484 54.6933 19.9384 54.8267 19.8584 54.98C19.7851 55.1267 19.7484 55.2833 19.7484 55.45V55.79C19.7484 55.9567 19.7851 56.1167 19.8584 56.27C19.9384 56.4167 20.0484 56.55 20.1884 56.67C20.3284 56.7833 20.4918 56.8767 20.6784 56.95C20.8718 57.0167 21.0784 57.05 21.2984 57.05C21.5184 57.05 21.7218 57.0167 21.9084 56.95C22.1018 56.8767 22.2684 56.7833 22.4084 56.67C22.5484 56.55 22.6551 56.4167 22.7284 56.27C22.8084 56.1167 22.8484 55.9567 22.8484 55.79V55.45ZM25.6184 61.72V60.31H21.4184V61.72H25.6184ZM30.79 56.41C30.77 56.4833 30.6867 56.5967 30.54 56.75C30.4 56.9033 30.2233 57.0733 30.01 57.26C29.9233 57.34 29.8167 57.43 29.69 57.53C29.57 57.63 29.44 57.7333 29.3 57.84C29.1667 57.9467 29.03 58.0533 28.89 58.16C28.7567 58.2667 28.6333 58.36 28.52 58.44L28.09 57.94C28.39 57.7267 28.69 57.5033 28.99 57.27C29.29 57.03 29.5633 56.79 29.81 56.55C29.93 56.43 30.03 56.3167 30.11 56.21C30.19 56.1033 30.25 55.9967 30.29 55.89C30.3367 55.7833 30.3667 55.6733 30.38 55.56C30.4 55.44 30.41 55.3133 30.41 55.18V54.38H28.35V53.77H33.08V54.38H31.12V55.15C31.12 55.2967 31.1267 55.4267 31.14 55.54C31.1533 55.6533 31.1833 55.7633 31.23 55.87C31.2833 55.9767 31.3567 56.0867 31.45 56.2C31.55 56.3067 31.68 56.43 31.84 56.57C32 56.7033 32.21 56.8667 32.47 57.06C32.73 57.2533 33.0033 57.4467 33.29 57.64L32.88 58.13C32.6733 57.99 32.4633 57.84 32.25 57.68C32.0367 57.52 31.8533 57.38 31.7 57.26C31.4667 57.0667 31.2633 56.8933 31.09 56.74C30.9167 56.5867 30.82 56.4767 30.8 56.41H30.79ZM29.57 59.06H35.45V62.43H34.75V59.68H29.57V59.06ZM35.45 58.52H34.75V56.13H32.84V55.51H34.75V53.22H35.45V58.52Z" fill="#9C9C9C"/>
<defs>
<filter id="filter0_di_182_273" x="0" y="0" width="52" height="52" filterUnits="userSpaceOnUse" color-interpolation-filters="sRGB">
<feFlood flood-opacity="0" result="BackgroundImageFix"/>
<feColorMatrix in="SourceAlpha" type="matrix" values="0 0 0 0 0 0 0 0 0 0 0 0 0 0 0 0 0 0 127 0" result="hardAlpha"/>
<feOffset dx="-1" dy="-1"/>
<feGaussianBlur stdDeviation="2.5"/>
<feComposite in2="hardAlpha" operator="out"/>
<feColorMatrix type="matrix" values="0 0 0 0 0 0 0 0 0 0 0 0 0 0 0 0 0 0 0.1 0"/>
<feBlend mode="normal" in2="BackgroundImageFix" result="effect1_dropShadow_182_273"/>
<feBlend mode="normal" in="SourceGraphic" in2="effect1_dropShadow_182_273" result="shape"/>
<feColorMatrix in="SourceAlpha" type="matrix" values="0 0 0 0 0 0 0 0 0 0 0 0 0 0 0 0 0 0 127 0" result="hardAlpha"/>
<feOffset dx="-1" dy="-1"/>
<feGaussianBlur stdDeviation="2"/>
<feComposite in2="hardAlpha" operator="arithmetic" k2="-1" k3="1"/>
<feColorMatrix type="matrix" values="0 0 0 0 0 0 0 0 0 0 0 0 0 0 0 0 0 0 0.25 0"/>
<feBlend mode="normal" in2="shape" result="effect2_innerShadow_182_273"/>
</filter>
<linearGradient id="paint0_linear_182_273" x1="26.998" y1="18" x2="26.998" y2="37" gradientUnits="userSpaceOnUse">
<stop stop-color="#C0C0C0"/>
<stop offset="1" stop-color="#D9D9D9"/>
</linearGradient>
</defs>
</svg>
