<svg width="42" height="42" viewBox="0 0 42 42" fill="none" xmlns="http://www.w3.org/2000/svg">
<g filter="url(#filter0_i_237_10)">
<circle cx="21" cy="21" r="21" fill="white"/>
</g>
<path d="M17.707 29.2926L27 19.9996L22.586 15.5856L13.293 24.8786C13.1651 25.0067 13.0742 25.167 13.03 25.3426L12 30.5856L17.242 29.5556C17.418 29.5116 17.579 29.4206 17.707 29.2926ZM30 16.9996C30.3749 16.6245 30.5856 16.1159 30.5856 15.5856C30.5856 15.0552 30.3749 14.5466 30 14.1716L28.414 12.5856C28.0389 12.2106 27.5303 12 27 12C26.4697 12 25.9611 12.2106 25.586 12.5856L24 14.1716L28.414 18.5856L30 16.9996Z" fill="url(#paint0_linear_237_10)"/>
<defs>
<filter id="filter0_i_237_10" x="0" y="0" width="44" height="44" filterUnits="userSpaceOnUse" color-interpolation-filters="sRGB">
<feFlood flood-opacity="0" result="BackgroundImageFix"/>
<feBlend mode="normal" in="SourceGraphic" in2="BackgroundImageFix" result="shape"/>
<feColorMatrix in="SourceAlpha" type="matrix" values="0 0 0 0 0 0 0 0 0 0 0 0 0 0 0 0 0 0 127 0" result="hardAlpha"/>
<feOffset dx="2" dy="2"/>
<feGaussianBlur stdDeviation="2"/>
<feComposite in2="hardAlpha" operator="arithmetic" k2="-1" k3="1"/>
<feColorMatrix type="matrix" values="0 0 0 0 0 0 0 0 0 0 0 0 0 0 0 0 0 0 0.2 0"/>
<feBlend mode="normal" in2="shape" result="effect1_innerShadow_237_10"/>
</filter>
<linearGradient id="paint0_linear_237_10" x1="21.2928" y1="12" x2="21.2928" y2="30.5856" gradientUnits="userSpaceOnUse">
<stop stop-color="#61A257"/>
<stop offset="0.880208" stop-color="#E3F1A9"/>
</linearGradient>
</defs>
</svg>
