<svg width="42" height="42" viewBox="0 0 42 42" fill="none" xmlns="http://www.w3.org/2000/svg">
<g filter="url(#filter0_i_237_14)">
<circle cx="21" cy="21" r="21" fill="white"/>
</g>
<path d="M23.2369 28C24.1019 28 24.5589 29.024 23.9819 29.668C23.6071 30.0875 23.1478 30.4229 22.6343 30.6525C22.1207 30.8821 21.5644 31.0005 21.0019 31C20.4394 31.0005 19.8831 30.8821 19.3695 30.6525C18.856 30.4229 18.3967 30.0875 18.0219 29.668C17.4699 29.052 17.8639 28.089 18.6559 28.007L18.7659 28.001L23.2369 28ZM21.0019 11C22.3599 11 23.5079 11.903 23.8769 13.141L23.9229 13.312L23.9309 13.355C25.0333 13.9769 25.9727 14.8511 26.6721 15.906C27.3716 16.9609 27.8112 18.1665 27.9549 19.424L27.9829 19.711L28.0019 20V22.931L28.0229 23.067C28.1598 23.8038 28.5676 24.4627 29.1659 24.914L29.3329 25.031L29.4949 25.13C30.3549 25.617 30.0549 26.896 29.1179 26.994L29.0019 27H13.0019C11.9739 27 11.6149 25.636 12.5089 25.13C12.8899 24.9144 13.2191 24.618 13.4734 24.2616C13.7277 23.9052 13.9009 23.4974 13.9809 23.067L14.0019 22.924L14.0029 19.954C14.0639 18.6479 14.4441 17.3766 15.1102 16.2515C15.7763 15.1263 16.7081 14.1816 17.8239 13.5L18.0719 13.354L18.0819 13.311C18.2234 12.713 18.5448 12.1728 19.003 11.7633C19.4611 11.3538 20.0339 11.0947 20.6439 11.021L20.8259 11.004L21.0019 11Z" fill="url(#paint0_linear_237_14)"/>
<defs>
<filter id="filter0_i_237_14" x="0" y="0" width="44" height="44" filterUnits="userSpaceOnUse" color-interpolation-filters="sRGB">
<feFlood flood-opacity="0" result="BackgroundImageFix"/>
<feBlend mode="normal" in="SourceGraphic" in2="BackgroundImageFix" result="shape"/>
<feColorMatrix in="SourceAlpha" type="matrix" values="0 0 0 0 0 0 0 0 0 0 0 0 0 0 0 0 0 0 127 0" result="hardAlpha"/>
<feOffset dx="2" dy="2"/>
<feGaussianBlur stdDeviation="2"/>
<feComposite in2="hardAlpha" operator="arithmetic" k2="-1" k3="1"/>
<feColorMatrix type="matrix" values="0 0 0 0 0 0 0 0 0 0 0 0 0 0 0 0 0 0 0.2 0"/>
<feBlend mode="normal" in2="shape" result="effect1_innerShadow_237_14"/>
</filter>
<linearGradient id="paint0_linear_237_14" x1="21.0019" y1="11" x2="21.0019" y2="31" gradientUnits="userSpaceOnUse">
<stop stop-color="#61A257"/>
<stop offset="0.880208" stop-color="#E3F1A9"/>
</linearGradient>
</defs>
</svg>
