<svg width="52" height="64" viewBox="0 0 52 64" fill="none" xmlns="http://www.w3.org/2000/svg">
<g filter="url(#filter0_di_182_274)">
<circle cx="27" cy="27" r="21" fill="white"/>
</g>
<path d="M23.707 35.2926L33 25.9996L28.586 21.5856L19.293 30.8786C19.1651 31.0067 19.0742 31.167 19.03 31.3426L18 36.5856L23.242 35.5556C23.418 35.5116 23.579 35.4206 23.707 35.2926ZM36 22.9996C36.3749 22.6245 36.5856 22.1159 36.5856 21.5856C36.5856 21.0552 36.3749 20.5466 36 20.1716L34.414 18.5856C34.0389 18.2106 33.5303 18 33 18C32.4697 18 31.9611 18.2106 31.586 18.5856L30 20.1716L34.414 24.5856L36 22.9996Z" fill="url(#paint0_linear_182_274)"/>
<path d="M20.8477 58.36V60.67H15.6377V61.8H21.1177V62.4H14.9477V60.08H20.1577V58.96H14.8977V58.36H20.8477ZM20.8077 53.55V54.57C20.8077 54.89 20.7843 55.2367 20.7377 55.61C20.6977 55.9767 20.6477 56.32 20.5877 56.64H22.0977V57.25H13.6977V56.64H19.8477C19.9343 56.28 19.9977 55.9233 20.0377 55.57C20.0777 55.2167 20.0977 54.87 20.0977 54.53V54.17H14.7977V53.55H20.8077ZM29.0392 53.89V55.37C29.0392 55.5367 29.0459 55.6867 29.0592 55.82C29.0792 55.9533 29.1092 56.08 29.1492 56.2C29.1959 56.32 29.2592 56.44 29.3392 56.56C29.4192 56.68 29.5226 56.8033 29.6492 56.93C29.7159 57.0033 29.7992 57.0867 29.8992 57.18C29.9992 57.2733 30.1026 57.37 30.2092 57.47C30.3159 57.5633 30.4259 57.6567 30.5392 57.75C30.6526 57.8433 30.7592 57.93 30.8592 58.01L30.4392 58.48C30.2659 58.34 30.0859 58.19 29.8992 58.03C29.7192 57.87 29.5459 57.71 29.3792 57.55C29.2059 57.39 29.0592 57.2433 28.9392 57.11C28.8192 56.97 28.7392 56.8567 28.6992 56.77H28.6892C28.6692 56.8233 28.6092 56.91 28.5092 57.03C28.4092 57.1433 28.2959 57.26 28.1692 57.38C28.0092 57.5333 27.8359 57.6933 27.6492 57.86C27.4692 58.0267 27.2559 58.2133 27.0092 58.42H26.9892C26.7426 58.2133 26.5259 58.0267 26.3392 57.86C26.1592 57.6933 25.9892 57.5333 25.8292 57.38C25.7026 57.26 25.5892 57.1433 25.4892 57.03C25.3892 56.91 25.3292 56.8233 25.3092 56.77H25.2992C25.2592 56.8567 25.1792 56.97 25.0592 57.11C24.9392 57.2433 24.7926 57.39 24.6192 57.55C24.4526 57.71 24.2726 57.8733 24.0792 58.04C23.8859 58.2067 23.6959 58.3667 23.5092 58.52L23.0892 58.05C23.3426 57.8567 23.5792 57.66 23.7992 57.46C24.0259 57.2533 24.2092 57.0767 24.3492 56.93C24.4759 56.8033 24.5759 56.68 24.6492 56.56C24.7292 56.44 24.7926 56.32 24.8392 56.2C24.8859 56.08 24.9159 55.9533 24.9292 55.82C24.9492 55.6867 24.9592 55.5367 24.9592 55.37V53.89H25.6492V55.31C25.6492 55.51 25.6559 55.6833 25.6692 55.83C25.6826 55.9767 25.7092 56.11 25.7492 56.23C25.7892 56.35 25.8492 56.4667 25.9292 56.58C26.0092 56.6867 26.1159 56.8067 26.2492 56.94C26.3492 57.04 26.4659 57.1533 26.5992 57.28C26.7326 57.4067 26.8659 57.5267 26.9992 57.64C27.1326 57.5267 27.2659 57.4067 27.3992 57.28C27.5326 57.1533 27.6492 57.04 27.7492 56.94C27.8826 56.8067 27.9892 56.6867 28.0692 56.58C28.1492 56.4667 28.2092 56.35 28.2492 56.23C28.2892 56.11 28.3159 55.9767 28.3292 55.83C28.3426 55.6833 28.3492 55.51 28.3492 55.31V53.89H29.0392ZM31.1992 60.46V61.07H22.7992V60.46H31.1992ZM39.4208 62.36H38.7108V53.22H39.4208V62.36ZM32.3708 59.71C33.1374 59.27 33.7474 58.8933 34.2008 58.58C34.6541 58.26 34.9974 57.9633 35.2308 57.69C35.4641 57.41 35.6141 57.13 35.6808 56.85C35.7541 56.57 35.7908 56.2433 35.7908 55.87V54.72H32.4708V54.08H36.4808V55.88C36.4808 56.1867 36.4641 56.4633 36.4308 56.71C36.3974 56.9567 36.3308 57.19 36.2308 57.41C36.1374 57.63 36.0041 57.8433 35.8308 58.05C35.6574 58.2567 35.4308 58.4733 35.1508 58.7C34.8774 58.9267 34.5408 59.17 34.1408 59.43C33.7474 59.6833 33.2808 59.9667 32.7408 60.28L32.3708 59.71Z" fill="#9C9C9C"/>
<defs>
<filter id="filter0_di_182_274" x="0" y="0" width="52" height="52" filterUnits="userSpaceOnUse" color-interpolation-filters="sRGB">
<feFlood flood-opacity="0" result="BackgroundImageFix"/>
<feColorMatrix in="SourceAlpha" type="matrix" values="0 0 0 0 0 0 0 0 0 0 0 0 0 0 0 0 0 0 127 0" result="hardAlpha"/>
<feOffset dx="-1" dy="-1"/>
<feGaussianBlur stdDeviation="2.5"/>
<feComposite in2="hardAlpha" operator="out"/>
<feColorMatrix type="matrix" values="0 0 0 0 0 0 0 0 0 0 0 0 0 0 0 0 0 0 0.1 0"/>
<feBlend mode="normal" in2="BackgroundImageFix" result="effect1_dropShadow_182_274"/>
<feBlend mode="normal" in="SourceGraphic" in2="effect1_dropShadow_182_274" result="shape"/>
<feColorMatrix in="SourceAlpha" type="matrix" values="0 0 0 0 0 0 0 0 0 0 0 0 0 0 0 0 0 0 127 0" result="hardAlpha"/>
<feOffset dx="-1" dy="-1"/>
<feGaussianBlur stdDeviation="2"/>
<feComposite in2="hardAlpha" operator="arithmetic" k2="-1" k3="1"/>
<feColorMatrix type="matrix" values="0 0 0 0 0 0 0 0 0 0 0 0 0 0 0 0 0 0 0.25 0"/>
<feBlend mode="normal" in2="shape" result="effect2_innerShadow_182_274"/>
</filter>
<linearGradient id="paint0_linear_182_274" x1="27.2928" y1="18" x2="27.2928" y2="36.5856" gradientUnits="userSpaceOnUse">
<stop stop-color="#C0C0C0"/>
<stop offset="1" stop-color="#D9D9D9"/>
</linearGradient>
</defs>
</svg>
