<svg width="52" height="64" viewBox="0 0 52 64" fill="none" xmlns="http://www.w3.org/2000/svg">
<g filter="url(#filter0_di_182_276)">
<circle cx="27" cy="27" r="21" fill="white"/>
</g>
<path d="M27 27C25.7625 27 24.7031 26.5594 23.8219 25.6781C22.9406 24.7969 22.5 23.7375 22.5 22.5C22.5 21.2625 22.9406 20.2031 23.8219 19.3219C24.7031 18.4406 25.7625 18 27 18C28.2375 18 29.2969 18.4406 30.1781 19.3219C31.0594 20.2031 31.5 21.2625 31.5 22.5C31.5 23.7375 31.0594 24.7969 30.1781 25.6781C29.2969 26.5594 28.2375 27 27 27ZM18 36V32.85C18 32.2125 18.1643 31.6264 18.4928 31.0916C18.8213 30.5569 19.257 30.1492 19.8 29.8687C20.9625 29.2875 22.1437 28.8514 23.3437 28.5604C24.5437 28.2694 25.7625 28.1242 27 28.125C28.2375 28.125 29.4562 28.2705 30.6562 28.5615C31.8562 28.8525 33.0375 29.2882 34.2 29.8687C34.7437 30.15 35.1799 30.558 35.5084 31.0927C35.8369 31.6275 36.0007 32.2132 36 32.85V36H18Z" fill="url(#paint0_linear_182_276)"/>
<path d="M9.27609 54.06V59.93H5.06609V54.06H9.27609ZM8.57609 54.7H5.76609V59.29H8.57609V54.7ZM11.6961 56.61H13.2161V57.24H11.6961V62.36H10.9861V53.22H11.6961V56.61ZM21.2377 62.36H20.5277V53.22H21.2377V62.36ZM18.7177 57.46C18.7177 58.3 18.5177 58.9533 18.1177 59.42C17.7243 59.8867 17.171 60.12 16.4577 60.12C15.7443 60.12 15.1877 59.8867 14.7877 59.42C14.3943 58.9533 14.1977 58.3 14.1977 57.46V56.51C14.1977 55.67 14.3943 55.02 14.7877 54.56C15.1877 54.0933 15.7443 53.86 16.4577 53.86C17.171 53.86 17.7243 54.0933 18.1177 54.56C18.5177 55.0267 18.7177 55.68 18.7177 56.52V57.46ZM18.0277 56.64C18.0277 56.26 17.9877 55.9367 17.9077 55.67C17.8343 55.4033 17.7277 55.1867 17.5877 55.02C17.4543 54.8467 17.291 54.72 17.0977 54.64C16.9043 54.56 16.691 54.52 16.4577 54.52C16.2243 54.52 16.011 54.56 15.8177 54.64C15.6243 54.72 15.4577 54.8467 15.3177 55.02C15.1843 55.1867 15.0777 55.4033 14.9977 55.67C14.9243 55.9367 14.8877 56.26 14.8877 56.64V57.34C14.8877 57.72 14.9243 58.0467 14.9977 58.32C15.0777 58.5867 15.1843 58.8067 15.3177 58.98C15.4577 59.1467 15.6243 59.27 15.8177 59.35C16.011 59.43 16.2243 59.47 16.4577 59.47C16.691 59.47 16.9043 59.43 17.0977 59.35C17.291 59.27 17.4543 59.1467 17.5877 58.98C17.7277 58.8067 17.8343 58.5867 17.9077 58.32C17.9877 58.0467 18.0277 57.72 18.0277 57.34V56.64ZM22.8492 59.24H23.7692V54.75H22.8592V54.14H27.4592V54.75H26.5292V59.21C26.7226 59.1967 26.9126 59.1833 27.0992 59.17C27.2859 59.15 27.4659 59.1267 27.6392 59.1L27.6992 59.69C27.2859 59.75 26.8326 59.7933 26.3392 59.82C25.8526 59.84 25.3726 59.85 24.8992 59.85H22.8492V59.24ZM29.0792 61.91H28.3792V57.21H27.1092V56.57H28.3792V53.41H29.0792V61.91ZM30.7792 62.36H30.0792V53.22H30.7792V62.36ZM24.7992 59.24C24.9859 59.24 25.1659 59.24 25.3392 59.24C25.5126 59.24 25.6826 59.2367 25.8492 59.23V54.75H24.4492V59.24H24.7992ZM39.4408 62.36H38.7308V53.22H39.4408V62.36ZM36.9208 57.46C36.9208 58.3 36.7208 58.9533 36.3208 59.42C35.9274 59.8867 35.3741 60.12 34.6608 60.12C33.9474 60.12 33.3908 59.8867 32.9908 59.42C32.5974 58.9533 32.4008 58.3 32.4008 57.46V56.51C32.4008 55.67 32.5974 55.02 32.9908 54.56C33.3908 54.0933 33.9474 53.86 34.6608 53.86C35.3741 53.86 35.9274 54.0933 36.3208 54.56C36.7208 55.0267 36.9208 55.68 36.9208 56.52V57.46ZM36.2308 56.64C36.2308 56.26 36.1908 55.9367 36.1108 55.67C36.0374 55.4033 35.9308 55.1867 35.7908 55.02C35.6574 54.8467 35.4941 54.72 35.3008 54.64C35.1074 54.56 34.8941 54.52 34.6608 54.52C34.4274 54.52 34.2141 54.56 34.0208 54.64C33.8274 54.72 33.6608 54.8467 33.5208 55.02C33.3874 55.1867 33.2808 55.4033 33.2008 55.67C33.1274 55.9367 33.0908 56.26 33.0908 56.64V57.34C33.0908 57.72 33.1274 58.0467 33.2008 58.32C33.2808 58.5867 33.3874 58.8067 33.5208 58.98C33.6608 59.1467 33.8274 59.27 34.0208 59.35C34.2141 59.43 34.4274 59.47 34.6608 59.47C34.8941 59.47 35.1074 59.43 35.3008 59.35C35.4941 59.27 35.6574 59.1467 35.7908 58.98C35.9308 58.8067 36.0374 58.5867 36.1108 58.32C36.1908 58.0467 36.2308 57.72 36.2308 57.34V56.64ZM46.4623 54.68H44.3923V56.14C44.3923 56.3333 44.399 56.5 44.4123 56.64C44.4257 56.78 44.4523 56.9133 44.4923 57.04C44.5323 57.1667 44.589 57.2933 44.6623 57.42C44.7423 57.54 44.849 57.6767 44.9823 57.83C45.1757 58.0567 45.4157 58.3133 45.7023 58.6C45.9957 58.8867 46.329 59.1967 46.7023 59.53L46.2423 60C45.8957 59.68 45.5957 59.3933 45.3423 59.14C45.0957 58.8867 44.8723 58.6533 44.6723 58.44C44.5257 58.2867 44.3923 58.14 44.2723 58C44.1523 57.86 44.079 57.7567 44.0523 57.69H44.0423C44.029 57.7367 43.9957 57.7967 43.9423 57.87C43.8957 57.9433 43.8357 58.0233 43.7623 58.11C43.6957 58.1967 43.6223 58.2867 43.5423 58.38C43.4623 58.4667 43.3857 58.55 43.3123 58.63C43.2457 58.7033 43.1557 58.8 43.0423 58.92C42.929 59.0333 42.8023 59.16 42.6623 59.3C42.529 59.4333 42.3823 59.5767 42.2223 59.73C42.069 59.8767 41.919 60.0133 41.7723 60.14L41.3023 59.67C41.6223 59.39 41.919 59.1133 42.1923 58.84C42.4723 58.5667 42.729 58.3 42.9623 58.04C43.1223 57.86 43.249 57.7 43.3423 57.56C43.4357 57.4133 43.5057 57.27 43.5523 57.13C43.6057 56.99 43.639 56.8467 43.6523 56.7C43.6723 56.5533 43.6823 56.3833 43.6823 56.19V54.68H41.5823V54.06H46.4623V54.68ZM48.6523 62.36H47.9423V53.22H48.6523V62.36Z" fill="#9C9C9C"/>
<defs>
<filter id="filter0_di_182_276" x="0" y="0" width="52" height="52" filterUnits="userSpaceOnUse" color-interpolation-filters="sRGB">
<feFlood flood-opacity="0" result="BackgroundImageFix"/>
<feColorMatrix in="SourceAlpha" type="matrix" values="0 0 0 0 0 0 0 0 0 0 0 0 0 0 0 0 0 0 127 0" result="hardAlpha"/>
<feOffset dx="-1" dy="-1"/>
<feGaussianBlur stdDeviation="2.5"/>
<feComposite in2="hardAlpha" operator="out"/>
<feColorMatrix type="matrix" values="0 0 0 0 0 0 0 0 0 0 0 0 0 0 0 0 0 0 0.1 0"/>
<feBlend mode="normal" in2="BackgroundImageFix" result="effect1_dropShadow_182_276"/>
<feBlend mode="normal" in="SourceGraphic" in2="effect1_dropShadow_182_276" result="shape"/>
<feColorMatrix in="SourceAlpha" type="matrix" values="0 0 0 0 0 0 0 0 0 0 0 0 0 0 0 0 0 0 127 0" result="hardAlpha"/>
<feOffset dx="-1" dy="-1"/>
<feGaussianBlur stdDeviation="2"/>
<feComposite in2="hardAlpha" operator="arithmetic" k2="-1" k3="1"/>
<feColorMatrix type="matrix" values="0 0 0 0 0 0 0 0 0 0 0 0 0 0 0 0 0 0 0.25 0"/>
<feBlend mode="normal" in2="shape" result="effect2_innerShadow_182_276"/>
</filter>
<linearGradient id="paint0_linear_182_276" x1="27" y1="18" x2="27" y2="36" gradientUnits="userSpaceOnUse">
<stop stop-color="#C0C0C0"/>
<stop offset="1" stop-color="#D9D9D9"/>
</linearGradient>
</defs>
</svg>
