<svg width="52" height="52" viewBox="0 0 52 52" fill="none" xmlns="http://www.w3.org/2000/svg">
<g filter="url(#filter0_di_218_19)">
<circle cx="27" cy="27" r="21" fill="white"/>
</g>
<path d="M27 27C25.7625 27 24.7031 26.5594 23.8219 25.6781C22.9406 24.7969 22.5 23.7375 22.5 22.5C22.5 21.2625 22.9406 20.2031 23.8219 19.3219C24.7031 18.4406 25.7625 18 27 18C28.2375 18 29.2969 18.4406 30.1781 19.3219C31.0594 20.2031 31.5 21.2625 31.5 22.5C31.5 23.7375 31.0594 24.7969 30.1781 25.6781C29.2969 26.5594 28.2375 27 27 27ZM18 36V32.85C18 32.2125 18.1643 31.6264 18.4928 31.0916C18.8213 30.5569 19.257 30.1492 19.8 29.8687C20.9625 29.2875 22.1437 28.8514 23.3437 28.5604C24.5437 28.2694 25.7625 28.1242 27 28.125C28.2375 28.125 29.4562 28.2705 30.6562 28.5615C31.8562 28.8525 33.0375 29.2882 34.2 29.8687C34.7437 30.15 35.1799 30.558 35.5084 31.0927C35.8369 31.6275 36.0007 32.2132 36 32.85V36H18Z" fill="url(#paint0_linear_218_19)"/>
<defs>
<filter id="filter0_di_218_19" x="0" y="0" width="52" height="52" filterUnits="userSpaceOnUse" color-interpolation-filters="sRGB">
<feFlood flood-opacity="0" result="BackgroundImageFix"/>
<feColorMatrix in="SourceAlpha" type="matrix" values="0 0 0 0 0 0 0 0 0 0 0 0 0 0 0 0 0 0 127 0" result="hardAlpha"/>
<feOffset dx="-1" dy="-1"/>
<feGaussianBlur stdDeviation="2.5"/>
<feComposite in2="hardAlpha" operator="out"/>
<feColorMatrix type="matrix" values="0 0 0 0 0 0 0 0 0 0 0 0 0 0 0 0 0 0 0.1 0"/>
<feBlend mode="normal" in2="BackgroundImageFix" result="effect1_dropShadow_218_19"/>
<feBlend mode="normal" in="SourceGraphic" in2="effect1_dropShadow_218_19" result="shape"/>
<feColorMatrix in="SourceAlpha" type="matrix" values="0 0 0 0 0 0 0 0 0 0 0 0 0 0 0 0 0 0 127 0" result="hardAlpha"/>
<feOffset dx="-1" dy="-1"/>
<feGaussianBlur stdDeviation="2"/>
<feComposite in2="hardAlpha" operator="arithmetic" k2="-1" k3="1"/>
<feColorMatrix type="matrix" values="0 0 0 0 0 0 0 0 0 0 0 0 0 0 0 0 0 0 0.25 0"/>
<feBlend mode="normal" in2="shape" result="effect2_innerShadow_218_19"/>
</filter>
<linearGradient id="paint0_linear_218_19" x1="27" y1="18" x2="27" y2="36" gradientUnits="userSpaceOnUse">
<stop stop-color="#C0C0C0"/>
<stop offset="1" stop-color="#D9D9D9"/>
</linearGradient>
</defs>
</svg>
