<svg width="52" height="52" viewBox="0 0 52 52" fill="none" xmlns="http://www.w3.org/2000/svg">
<g filter="url(#filter0_di_218_7)">
<circle cx="27" cy="27" r="21" fill="white"/>
</g>
<path d="M31.999 18C32.2439 18 32.4803 18.09 32.6634 18.2527C32.8464 18.4155 32.9633 18.6397 32.992 18.883L32.999 19V21.17C33.4514 21.0106 33.9354 20.962 34.4105 21.0283C34.8856 21.0946 35.3378 21.2738 35.7293 21.5509C36.1208 21.8281 36.4402 22.1951 36.6606 22.6211C36.8809 23.0472 36.996 23.5198 36.996 23.9995C36.996 24.4792 36.8809 24.9518 36.6606 25.3779C36.4402 25.8039 36.1208 26.1709 35.7293 26.4481C35.3378 26.7252 34.8856 26.9044 34.4105 26.9707C33.9354 27.037 33.4514 26.9884 32.999 26.829V27C32.9988 28.418 32.4966 29.7901 31.5814 30.8732C30.6662 31.9562 29.3971 32.6803 27.999 32.917V35H30.999C31.2539 35.0003 31.499 35.0979 31.6844 35.2728C31.8697 35.4478 31.9812 35.687 31.9962 35.9414C32.0111 36.1958 31.9283 36.4464 31.7647 36.6418C31.6011 36.8373 31.3691 36.9629 31.116 36.993L30.999 37H22.999C22.7441 36.9997 22.499 36.9021 22.3136 36.7272C22.1283 36.5522 22.0168 36.313 22.0018 36.0586C21.9869 35.8042 22.0697 35.5536 22.2333 35.3582C22.3969 35.1627 22.6289 35.0371 22.882 35.007L22.999 35H25.999V32.917C24.639 32.6868 23.3998 31.9952 22.4899 30.9585C21.58 29.9218 21.0549 28.6034 21.003 27.225L20.999 27V26.829C20.5604 26.9843 20.0918 27.0354 19.63 26.9783C19.1683 26.9213 18.7262 26.7576 18.3386 26.5003C17.951 26.243 17.6285 25.899 17.3967 25.4956C17.1649 25.0922 17.0301 24.6405 17.003 24.176L17 24L17.005 23.824C17.032 23.3596 17.1667 22.9078 17.3984 22.5044C17.6301 22.101 17.9524 21.757 18.3399 21.4996C18.7274 21.2421 19.1694 21.0784 19.6311 21.0212C20.0928 20.964 20.5614 21.0149 21 21.17L20.999 19C20.999 18.7348 21.1044 18.4804 21.2919 18.2929C21.4794 18.1054 21.7338 18 21.999 18H31.999ZM19.999 23C19.7338 23 19.4794 23.1054 19.2919 23.2929C19.1044 23.4804 18.999 23.7348 18.999 24C18.999 24.2652 19.1044 24.5196 19.2919 24.7071C19.4794 24.8946 19.7338 25 19.999 25C20.2642 25 20.5186 24.8946 20.7061 24.7071C20.8936 24.5196 20.999 24.2652 20.999 24C20.999 23.7348 20.8936 23.4804 20.7061 23.2929C20.5186 23.1054 20.2642 23 19.999 23ZM33.999 23C33.7338 23 33.4794 23.1054 33.2919 23.2929C33.1044 23.4804 32.999 23.7348 32.999 24C32.999 24.2652 33.1044 24.5196 33.2919 24.7071C33.4794 24.8946 33.7338 25 33.999 25C34.2642 25 34.5186 24.8946 34.7061 24.7071C34.8936 24.5196 34.999 24.2652 34.999 24C34.999 23.7348 34.8936 23.4804 34.7061 23.2929C34.5186 23.1054 34.2642 23 33.999 23Z" fill="url(#paint0_linear_218_7)"/>
<defs>
<filter id="filter0_di_218_7" x="0" y="0" width="52" height="52" filterUnits="userSpaceOnUse" color-interpolation-filters="sRGB">
<feFlood flood-opacity="0" result="BackgroundImageFix"/>
<feColorMatrix in="SourceAlpha" type="matrix" values="0 0 0 0 0 0 0 0 0 0 0 0 0 0 0 0 0 0 127 0" result="hardAlpha"/>
<feOffset dx="-1" dy="-1"/>
<feGaussianBlur stdDeviation="2.5"/>
<feComposite in2="hardAlpha" operator="out"/>
<feColorMatrix type="matrix" values="0 0 0 0 0 0 0 0 0 0 0 0 0 0 0 0 0 0 0.1 0"/>
<feBlend mode="normal" in2="BackgroundImageFix" result="effect1_dropShadow_218_7"/>
<feBlend mode="normal" in="SourceGraphic" in2="effect1_dropShadow_218_7" result="shape"/>
<feColorMatrix in="SourceAlpha" type="matrix" values="0 0 0 0 0 0 0 0 0 0 0 0 0 0 0 0 0 0 127 0" result="hardAlpha"/>
<feOffset dx="-1" dy="-1"/>
<feGaussianBlur stdDeviation="2"/>
<feComposite in2="hardAlpha" operator="arithmetic" k2="-1" k3="1"/>
<feColorMatrix type="matrix" values="0 0 0 0 0 0 0 0 0 0 0 0 0 0 0 0 0 0 0.25 0"/>
<feBlend mode="normal" in2="shape" result="effect2_innerShadow_218_7"/>
</filter>
<linearGradient id="paint0_linear_218_7" x1="26.998" y1="18" x2="26.998" y2="37" gradientUnits="userSpaceOnUse">
<stop stop-color="#C0C0C0"/>
<stop offset="1" stop-color="#D9D9D9"/>
</linearGradient>
</defs>
</svg>
