<svg width="42" height="42" viewBox="0 0 42 42" fill="none" xmlns="http://www.w3.org/2000/svg">
<g filter="url(#filter0_i_237_18)">
<circle cx="21" cy="21" r="21" fill="white"/>
</g>
<path d="M21 21C19.7625 21 18.7031 20.5594 17.8219 19.6781C16.9406 18.7969 16.5 17.7375 16.5 16.5C16.5 15.2625 16.9406 14.2031 17.8219 13.3219C18.7031 12.4406 19.7625 12 21 12C22.2375 12 23.2969 12.4406 24.1781 13.3219C25.0594 14.2031 25.5 15.2625 25.5 16.5C25.5 17.7375 25.0594 18.7969 24.1781 19.6781C23.2969 20.5594 22.2375 21 21 21ZM12 30V26.85C12 26.2125 12.1643 25.6264 12.4928 25.0916C12.8213 24.5569 13.257 24.1492 13.8 23.8687C14.9625 23.2875 16.1437 22.8514 17.3437 22.5604C18.5437 22.2694 19.7625 22.1242 21 22.125C22.2375 22.125 23.4562 22.2705 24.6562 22.5615C25.8562 22.8525 27.0375 23.2882 28.2 23.8687C28.7437 24.15 29.1799 24.558 29.5084 25.0927C29.8369 25.6275 30.0007 26.2132 30 26.85V30H12Z" fill="url(#paint0_linear_237_18)"/>
<defs>
<filter id="filter0_i_237_18" x="0" y="0" width="44" height="44" filterUnits="userSpaceOnUse" color-interpolation-filters="sRGB">
<feFlood flood-opacity="0" result="BackgroundImageFix"/>
<feBlend mode="normal" in="SourceGraphic" in2="BackgroundImageFix" result="shape"/>
<feColorMatrix in="SourceAlpha" type="matrix" values="0 0 0 0 0 0 0 0 0 0 0 0 0 0 0 0 0 0 127 0" result="hardAlpha"/>
<feOffset dx="2" dy="2"/>
<feGaussianBlur stdDeviation="2"/>
<feComposite in2="hardAlpha" operator="arithmetic" k2="-1" k3="1"/>
<feColorMatrix type="matrix" values="0 0 0 0 0 0 0 0 0 0 0 0 0 0 0 0 0 0 0.2 0"/>
<feBlend mode="normal" in2="shape" result="effect1_innerShadow_237_18"/>
</filter>
<linearGradient id="paint0_linear_237_18" x1="21" y1="12" x2="21" y2="30" gradientUnits="userSpaceOnUse">
<stop stop-color="#61A257"/>
<stop offset="0.880208" stop-color="#E3F1A9"/>
</linearGradient>
</defs>
</svg>
