<svg width="42" height="42" viewBox="0 0 42 42" fill="none" xmlns="http://www.w3.org/2000/svg">
<g filter="url(#filter0_i_237_2)">
<circle cx="21" cy="21" r="21" fill="white"/>
</g>
<path d="M14.25 30.6875C13.6313 30.6875 13.1014 30.467 12.6604 30.026C12.2194 29.585 11.9993 29.0555 12 28.4375V18.3125C12 17.9562 12.0799 17.6187 12.2396 17.3C12.3994 16.9812 12.6195 16.7187 12.9 16.5125L19.65 11.45C19.8562 11.3 20.0719 11.1875 20.2969 11.1125C20.5219 11.0375 20.7562 11 21 11C21.2437 11 21.4781 11.0375 21.7031 11.1125C21.9281 11.1875 22.1437 11.3 22.35 11.45L29.1 16.5125C29.3812 16.7187 29.6017 16.9812 29.7615 17.3C29.9212 17.6187 30.0007 17.9562 30 18.3125V28.4375C30 29.0562 29.7795 29.5861 29.3385 30.0271C28.8975 30.4681 28.368 30.6882 27.75 30.6875H23.25V22.8125H18.75V30.6875H14.25Z" fill="url(#paint0_linear_237_2)"/>
<defs>
<filter id="filter0_i_237_2" x="0" y="0" width="44" height="44" filterUnits="userSpaceOnUse" color-interpolation-filters="sRGB">
<feFlood flood-opacity="0" result="BackgroundImageFix"/>
<feBlend mode="normal" in="SourceGraphic" in2="BackgroundImageFix" result="shape"/>
<feColorMatrix in="SourceAlpha" type="matrix" values="0 0 0 0 0 0 0 0 0 0 0 0 0 0 0 0 0 0 127 0" result="hardAlpha"/>
<feOffset dx="2" dy="2"/>
<feGaussianBlur stdDeviation="2"/>
<feComposite in2="hardAlpha" operator="arithmetic" k2="-1" k3="1"/>
<feColorMatrix type="matrix" values="0 0 0 0 0 0 0 0 0 0 0 0 0 0 0 0 0 0 0.2 0"/>
<feBlend mode="normal" in2="shape" result="effect1_innerShadow_237_2"/>
</filter>
<linearGradient id="paint0_linear_237_2" x1="21" y1="11" x2="21" y2="30.6875" gradientUnits="userSpaceOnUse">
<stop stop-color="#61A257"/>
<stop offset="0.880208" stop-color="#E3F1A9"/>
</linearGradient>
</defs>
</svg>
