<svg width="42" height="58" viewBox="0 0 42 58" fill="none" xmlns="http://www.w3.org/2000/svg">
<g filter="url(#filter0_i_182_279)">
<circle cx="21" cy="21" r="21" fill="white"/>
</g>
<path d="M14.8477 52.36V54.67H9.63766V55.8H15.1177V56.4H8.94766V54.08H14.1577V52.96H8.89766V52.36H14.8477ZM14.8077 47.55V48.57C14.8077 48.89 14.7843 49.2367 14.7377 49.61C14.6977 49.9767 14.6477 50.32 14.5877 50.64H16.0977V51.25H7.69766V50.64H13.8477C13.9343 50.28 13.9977 49.9233 14.0377 49.57C14.0777 49.2167 14.0977 48.87 14.0977 48.53V48.17H8.79766V47.55H14.8077ZM23.0392 47.89V49.37C23.0392 49.5367 23.0459 49.6867 23.0592 49.82C23.0792 49.9533 23.1092 50.08 23.1492 50.2C23.1959 50.32 23.2592 50.44 23.3392 50.56C23.4192 50.68 23.5226 50.8033 23.6492 50.93C23.7159 51.0033 23.7992 51.0867 23.8992 51.18C23.9992 51.2733 24.1026 51.37 24.2092 51.47C24.3159 51.5633 24.4259 51.6567 24.5392 51.75C24.6526 51.8433 24.7592 51.93 24.8592 52.01L24.4392 52.48C24.2659 52.34 24.0859 52.19 23.8992 52.03C23.7192 51.87 23.5459 51.71 23.3792 51.55C23.2059 51.39 23.0592 51.2433 22.9392 51.11C22.8192 50.97 22.7392 50.8567 22.6992 50.77H22.6892C22.6692 50.8233 22.6092 50.91 22.5092 51.03C22.4092 51.1433 22.2959 51.26 22.1692 51.38C22.0092 51.5333 21.8359 51.6933 21.6492 51.86C21.4692 52.0267 21.2559 52.2133 21.0092 52.42H20.9892C20.7426 52.2133 20.5259 52.0267 20.3392 51.86C20.1592 51.6933 19.9892 51.5333 19.8292 51.38C19.7026 51.26 19.5892 51.1433 19.4892 51.03C19.3892 50.91 19.3292 50.8233 19.3092 50.77H19.2992C19.2592 50.8567 19.1792 50.97 19.0592 51.11C18.9392 51.2433 18.7926 51.39 18.6192 51.55C18.4526 51.71 18.2726 51.8733 18.0792 52.04C17.8859 52.2067 17.6959 52.3667 17.5092 52.52L17.0892 52.05C17.3426 51.8567 17.5792 51.66 17.7992 51.46C18.0259 51.2533 18.2092 51.0767 18.3492 50.93C18.4759 50.8033 18.5759 50.68 18.6492 50.56C18.7292 50.44 18.7926 50.32 18.8392 50.2C18.8859 50.08 18.9159 49.9533 18.9292 49.82C18.9492 49.6867 18.9592 49.5367 18.9592 49.37V47.89H19.6492V49.31C19.6492 49.51 19.6559 49.6833 19.6692 49.83C19.6826 49.9767 19.7092 50.11 19.7492 50.23C19.7892 50.35 19.8492 50.4667 19.9292 50.58C20.0092 50.6867 20.1159 50.8067 20.2492 50.94C20.3492 51.04 20.4659 51.1533 20.5992 51.28C20.7326 51.4067 20.8659 51.5267 20.9992 51.64C21.1326 51.5267 21.2659 51.4067 21.3992 51.28C21.5326 51.1533 21.6492 51.04 21.7492 50.94C21.8826 50.8067 21.9892 50.6867 22.0692 50.58C22.1492 50.4667 22.2092 50.35 22.2492 50.23C22.2892 50.11 22.3159 49.9767 22.3292 49.83C22.3426 49.6833 22.3492 49.51 22.3492 49.31V47.89H23.0392ZM25.1992 54.46V55.07H16.7992V54.46H25.1992ZM33.4208 56.36H32.7108V47.22H33.4208V56.36ZM26.3708 53.71C27.1374 53.27 27.7474 52.8933 28.2008 52.58C28.6541 52.26 28.9974 51.9633 29.2308 51.69C29.4641 51.41 29.6141 51.13 29.6808 50.85C29.7541 50.57 29.7908 50.2433 29.7908 49.87V48.72H26.4708V48.08H30.4808V49.88C30.4808 50.1867 30.4641 50.4633 30.4308 50.71C30.3974 50.9567 30.3308 51.19 30.2308 51.41C30.1374 51.63 30.0041 51.8433 29.8308 52.05C29.6574 52.2567 29.4308 52.4733 29.1508 52.7C28.8774 52.9267 28.5408 53.17 28.1408 53.43C27.7474 53.6833 27.2808 53.9667 26.7408 54.28L26.3708 53.71Z" fill="#61A257"/>
<path d="M17.707 29.2926L27 19.9996L22.586 15.5856L13.293 24.8786C13.1651 25.0067 13.0742 25.167 13.03 25.3426L12 30.5856L17.242 29.5556C17.418 29.5116 17.579 29.4206 17.707 29.2926ZM30 16.9996C30.3749 16.6245 30.5856 16.1159 30.5856 15.5856C30.5856 15.0552 30.3749 14.5466 30 14.1716L28.414 12.5856C28.0389 12.2106 27.5303 12 27 12C26.4697 12 25.9611 12.2106 25.586 12.5856L24 14.1716L28.414 18.5856L30 16.9996Z" fill="url(#paint0_linear_182_279)"/>
<defs>
<filter id="filter0_i_182_279" x="0" y="0" width="44" height="44" filterUnits="userSpaceOnUse" color-interpolation-filters="sRGB">
<feFlood flood-opacity="0" result="BackgroundImageFix"/>
<feBlend mode="normal" in="SourceGraphic" in2="BackgroundImageFix" result="shape"/>
<feColorMatrix in="SourceAlpha" type="matrix" values="0 0 0 0 0 0 0 0 0 0 0 0 0 0 0 0 0 0 127 0" result="hardAlpha"/>
<feOffset dx="2" dy="2"/>
<feGaussianBlur stdDeviation="2"/>
<feComposite in2="hardAlpha" operator="arithmetic" k2="-1" k3="1"/>
<feColorMatrix type="matrix" values="0 0 0 0 0 0 0 0 0 0 0 0 0 0 0 0 0 0 0.2 0"/>
<feBlend mode="normal" in2="shape" result="effect1_innerShadow_182_279"/>
</filter>
<linearGradient id="paint0_linear_182_279" x1="21.2928" y1="12" x2="21.2928" y2="30.5856" gradientUnits="userSpaceOnUse">
<stop stop-color="#61A257"/>
<stop offset="0.880208" stop-color="#E3F1A9"/>
</linearGradient>
</defs>
</svg>
