<svg width="52" height="52" viewBox="0 0 52 52" fill="none" xmlns="http://www.w3.org/2000/svg">
<g filter="url(#filter0_di_218_3)">
<circle cx="27" cy="27" r="21" fill="white"/>
</g>
<path d="M20.25 36.6875C19.6313 36.6875 19.1014 36.467 18.6604 36.026C18.2194 35.585 17.9993 35.0555 18 34.4375V24.3125C18 23.9562 18.0799 23.6187 18.2396 23.3C18.3994 22.9812 18.6195 22.7187 18.9 22.5125L25.65 17.45C25.8562 17.3 26.0719 17.1875 26.2969 17.1125C26.5219 17.0375 26.7562 17 27 17C27.2437 17 27.4781 17.0375 27.7031 17.1125C27.9281 17.1875 28.1437 17.3 28.35 17.45L35.1 22.5125C35.3812 22.7187 35.6017 22.9812 35.7615 23.3C35.9212 23.6187 36.0007 23.9562 36 24.3125V34.4375C36 35.0562 35.7795 35.5861 35.3385 36.0271C34.8975 36.4681 34.368 36.6882 33.75 36.6875H29.25V28.8125H24.75V36.6875H20.25Z" fill="url(#paint0_linear_218_3)"/>
<defs>
<filter id="filter0_di_218_3" x="0" y="0" width="52" height="52" filterUnits="userSpaceOnUse" color-interpolation-filters="sRGB">
<feFlood flood-opacity="0" result="BackgroundImageFix"/>
<feColorMatrix in="SourceAlpha" type="matrix" values="0 0 0 0 0 0 0 0 0 0 0 0 0 0 0 0 0 0 127 0" result="hardAlpha"/>
<feOffset dx="-1" dy="-1"/>
<feGaussianBlur stdDeviation="2.5"/>
<feComposite in2="hardAlpha" operator="out"/>
<feColorMatrix type="matrix" values="0 0 0 0 0 0 0 0 0 0 0 0 0 0 0 0 0 0 0.1 0"/>
<feBlend mode="normal" in2="BackgroundImageFix" result="effect1_dropShadow_218_3"/>
<feBlend mode="normal" in="SourceGraphic" in2="effect1_dropShadow_218_3" result="shape"/>
<feColorMatrix in="SourceAlpha" type="matrix" values="0 0 0 0 0 0 0 0 0 0 0 0 0 0 0 0 0 0 127 0" result="hardAlpha"/>
<feOffset dx="-1" dy="-1"/>
<feGaussianBlur stdDeviation="2"/>
<feComposite in2="hardAlpha" operator="arithmetic" k2="-1" k3="1"/>
<feColorMatrix type="matrix" values="0 0 0 0 0 0 0 0 0 0 0 0 0 0 0 0 0 0 0.25 0"/>
<feBlend mode="normal" in2="shape" result="effect2_innerShadow_218_3"/>
</filter>
<linearGradient id="paint0_linear_218_3" x1="27" y1="17" x2="27" y2="36.6875" gradientUnits="userSpaceOnUse">
<stop stop-color="#C0C0C0"/>
<stop offset="1" stop-color="#D9D9D9"/>
</linearGradient>
</defs>
</svg>
