<svg width="42" height="42" viewBox="0 0 42 42" fill="none" xmlns="http://www.w3.org/2000/svg">
<g filter="url(#filter0_i_237_6)">
<circle cx="21" cy="21" r="21" fill="white"/>
</g>
<path d="M25.999 12C26.2439 12 26.4803 12.09 26.6634 12.2527C26.8464 12.4155 26.9633 12.6397 26.992 12.883L26.999 13V15.17C27.4514 15.0106 27.9354 14.962 28.4105 15.0283C28.8856 15.0946 29.3378 15.2738 29.7293 15.5509C30.1208 15.8281 30.4402 16.1951 30.6606 16.6211C30.8809 17.0472 30.996 17.5198 30.996 17.9995C30.996 18.4792 30.8809 18.9518 30.6606 19.3779C30.4402 19.8039 30.1208 20.1709 29.7293 20.4481C29.3378 20.7252 28.8856 20.9044 28.4105 20.9707C27.9354 21.037 27.4514 20.9884 26.999 20.829V21C26.9988 22.418 26.4966 23.7901 25.5814 24.8732C24.6662 25.9562 23.3971 26.6803 21.999 26.917V29H24.999C25.2539 29.0003 25.499 29.0979 25.6844 29.2728C25.8697 29.4478 25.9812 29.687 25.9962 29.9414C26.0111 30.1958 25.9283 30.4464 25.7647 30.6418C25.6011 30.8373 25.3691 30.9629 25.116 30.993L24.999 31H16.999C16.7441 30.9997 16.499 30.9021 16.3136 30.7272C16.1283 30.5522 16.0168 30.313 16.0018 30.0586C15.9869 29.8042 16.0697 29.5536 16.2333 29.3582C16.3969 29.1627 16.6289 29.0371 16.882 29.007L16.999 29H19.999V26.917C18.639 26.6868 17.3998 25.9952 16.4899 24.9585C15.58 23.9218 15.0549 22.6034 15.003 21.225L14.999 21V20.829C14.5604 20.9843 14.0918 21.0354 13.63 20.9783C13.1683 20.9213 12.7262 20.7576 12.3386 20.5003C11.951 20.243 11.6285 19.899 11.3967 19.4956C11.1649 19.0922 11.0301 18.6405 11.003 18.176L11 18L11.005 17.824C11.032 17.3596 11.1667 16.9078 11.3984 16.5044C11.6301 16.101 11.9524 15.757 12.3399 15.4996C12.7274 15.2421 13.1694 15.0784 13.6311 15.0212C14.0928 14.964 14.5614 15.0149 15 15.17L14.999 13C14.999 12.7348 15.1044 12.4804 15.2919 12.2929C15.4794 12.1054 15.7338 12 15.999 12H25.999ZM13.999 17C13.7338 17 13.4794 17.1054 13.2919 17.2929C13.1044 17.4804 12.999 17.7348 12.999 18C12.999 18.2652 13.1044 18.5196 13.2919 18.7071C13.4794 18.8946 13.7338 19 13.999 19C14.2642 19 14.5186 18.8946 14.7061 18.7071C14.8936 18.5196 14.999 18.2652 14.999 18C14.999 17.7348 14.8936 17.4804 14.7061 17.2929C14.5186 17.1054 14.2642 17 13.999 17ZM27.999 17C27.7338 17 27.4794 17.1054 27.2919 17.2929C27.1044 17.4804 26.999 17.7348 26.999 18C26.999 18.2652 27.1044 18.5196 27.2919 18.7071C27.4794 18.8946 27.7338 19 27.999 19C28.2642 19 28.5186 18.8946 28.7061 18.7071C28.8936 18.5196 28.999 18.2652 28.999 18C28.999 17.7348 28.8936 17.4804 28.7061 17.2929C28.5186 17.1054 28.2642 17 27.999 17Z" fill="url(#paint0_linear_237_6)"/>
<defs>
<filter id="filter0_i_237_6" x="0" y="0" width="44" height="44" filterUnits="userSpaceOnUse" color-interpolation-filters="sRGB">
<feFlood flood-opacity="0" result="BackgroundImageFix"/>
<feBlend mode="normal" in="SourceGraphic" in2="BackgroundImageFix" result="shape"/>
<feColorMatrix in="SourceAlpha" type="matrix" values="0 0 0 0 0 0 0 0 0 0 0 0 0 0 0 0 0 0 127 0" result="hardAlpha"/>
<feOffset dx="2" dy="2"/>
<feGaussianBlur stdDeviation="2"/>
<feComposite in2="hardAlpha" operator="arithmetic" k2="-1" k3="1"/>
<feColorMatrix type="matrix" values="0 0 0 0 0 0 0 0 0 0 0 0 0 0 0 0 0 0 0.2 0"/>
<feBlend mode="normal" in2="shape" result="effect1_innerShadow_237_6"/>
</filter>
<linearGradient id="paint0_linear_237_6" x1="20.998" y1="12" x2="20.998" y2="31" gradientUnits="userSpaceOnUse">
<stop stop-color="#61A257"/>
<stop offset="0.880208" stop-color="#E3F1A9"/>
</linearGradient>
</defs>
</svg>
