<svg width="26" height="20" viewBox="0 0 26 20" fill="none" xmlns="http://www.w3.org/2000/svg">
<path d="M8.33632 14.4023L22.0942 0.641398C22.5217 0.213799 23.0658 0 23.7265 0C24.3871 0 24.9312 0.213799 25.3587 0.641398C25.7862 1.069 26 1.61322 26 2.27405C26 2.93489 25.7862 3.47911 25.3587 3.90671L9.96861 19.3003C9.50224 19.7668 8.95815 20 8.33632 20C7.7145 20 7.1704 19.7668 6.70404 19.3003L0.641255 13.2362C0.213751 12.8086 0 12.2643 0 11.6035C0 10.9427 0.213751 10.3984 0.641255 9.97084C1.06876 9.54324 1.61285 9.32945 2.27354 9.32945C2.93423 9.32945 3.47833 9.54324 3.90583 9.97084L8.33632 14.4023Z" fill="#61A257"/>
</svg>
