<svg width="82" height="82" viewBox="0 0 82 82" fill="none" xmlns="http://www.w3.org/2000/svg">
<g filter="url(#filter0_d_25_61)">
<path d="M70.25 72.0833L46.9167 48.75C44.8333 50.4167 42.4375 51.7361 39.7292 52.7083C37.0208 53.6805 34.1389 54.1667 31.0833 54.1667C23.5139 54.1667 17.1083 51.5444 11.8667 46.3C6.625 41.0556 4.00278 34.65 4 27.0833C4 19.5139 6.62222 13.1083 11.8667 7.86667C17.1111 2.625 23.5167 0.00277778 31.0833 0C38.6528 0 45.0583 2.62222 50.3 7.86667C55.5417 13.1111 58.1639 19.5167 58.1667 27.0833C58.1667 30.1389 57.6805 33.0208 56.7083 35.7292C55.7361 38.4375 54.4167 40.8333 52.75 42.9167L76.1875 66.3542C76.9514 67.118 77.3333 68.0555 77.3333 69.1667C77.3333 70.2778 76.9167 71.25 76.0833 72.0833C75.3194 72.8472 74.3472 73.2292 73.1667 73.2292C71.9861 73.2292 71.0139 72.8472 70.25 72.0833ZM31.0833 45.8333C36.2917 45.8333 40.7194 44.0097 44.3667 40.3625C48.0139 36.7153 49.8361 32.2889 49.8333 27.0833C49.8333 21.875 48.0097 17.4472 44.3625 13.8C40.7153 10.1528 36.2889 8.33055 31.0833 8.33333C25.875 8.33333 21.4472 10.1569 17.8 13.8042C14.1528 17.4514 12.3306 21.8778 12.3333 27.0833C12.3333 32.2917 14.1569 36.7194 17.8042 40.3667C21.4514 44.0139 25.8778 45.8361 31.0833 45.8333Z" fill="#E3F1A9"/>
</g>
<defs>
<filter id="filter0_d_25_61" x="0" y="0" width="81.3333" height="81.2292" filterUnits="userSpaceOnUse" color-interpolation-filters="sRGB">
<feFlood flood-opacity="0" result="BackgroundImageFix"/>
<feColorMatrix in="SourceAlpha" type="matrix" values="0 0 0 0 0 0 0 0 0 0 0 0 0 0 0 0 0 0 127 0" result="hardAlpha"/>
<feOffset dy="4"/>
<feGaussianBlur stdDeviation="2"/>
<feComposite in2="hardAlpha" operator="out"/>
<feColorMatrix type="matrix" values="0 0 0 0 0 0 0 0 0 0 0 0 0 0 0 0 0 0 0.25 0"/>
<feBlend mode="normal" in2="BackgroundImageFix" result="effect1_dropShadow_25_61"/>
<feBlend mode="normal" in="SourceGraphic" in2="effect1_dropShadow_25_61" result="shape"/>
</filter>
</defs>
</svg>
