<svg width="30" height="26" viewBox="0 0 30 26" fill="none" xmlns="http://www.w3.org/2000/svg">
<path d="M17.1815 1.61466C17.1815 0.113422 15.3109 -0.571691 14.3412 0.573027L9.95347 5.7597C9.75183 5.99764 9.50079 6.18881 9.2178 6.31992C8.93482 6.45103 8.62667 6.51893 8.31478 6.51891H4.29538C3.15617 6.51891 2.06363 6.97145 1.25809 7.77699C0.452548 8.58253 0 9.67508 0 10.8143V15.1097C0 16.2489 0.452548 17.3414 1.25809 18.147C2.06363 18.9525 3.15617 19.405 4.29538 19.405H8.31478C8.62675 19.4051 8.93495 19.4732 9.21795 19.6045C9.50094 19.7358 9.75193 19.9272 9.95347 20.1653L14.3412 25.3509C15.3098 26.4956 17.1815 25.8105 17.1815 24.3093V1.61466ZM20.868 5.63406C20.9843 5.55412 21.1151 5.49787 21.2531 5.46853C21.3911 5.4392 21.5336 5.43734 21.6723 5.46307C21.811 5.4888 21.9433 5.54161 22.0616 5.61849C22.1799 5.69536 22.2819 5.7948 22.3617 5.91111C23.9349 8.1984 24.765 10.5544 24.765 12.962C24.765 15.3695 23.9349 17.7255 22.3617 20.0139C22.2825 20.1317 22.1807 20.2326 22.0623 20.3107C21.9438 20.3889 21.811 20.4428 21.6716 20.4694C21.5322 20.4959 21.3889 20.4946 21.25 20.4654C21.1111 20.4362 20.9794 20.3798 20.8624 20.2994C20.7454 20.219 20.6456 20.1162 20.5686 19.997C20.4916 19.8777 20.439 19.7444 20.4139 19.6047C20.3888 19.465 20.3916 19.3217 20.4221 19.1831C20.4527 19.0445 20.5105 18.9134 20.592 18.7972C21.9719 16.7892 22.6184 14.8498 22.6184 12.962C22.6184 11.0742 21.9719 9.13479 20.592 7.12778C20.4309 6.89307 20.3696 6.604 20.4216 6.3241C20.4735 6.0442 20.6345 5.79639 20.8691 5.63513L20.868 5.63406ZM25.4394 1.44606C25.3373 1.34876 25.217 1.27252 25.0855 1.22169C24.9539 1.17087 24.8136 1.14645 24.6726 1.14984C24.5316 1.15323 24.3927 1.18436 24.2637 1.24145C24.1347 1.29854 24.0183 1.38048 23.921 1.48257C23.8237 1.58467 23.7474 1.70494 23.6966 1.8365C23.6458 1.96806 23.6214 2.10835 23.6247 2.24934C23.6281 2.39034 23.6593 2.52929 23.7164 2.65826C23.7734 2.78723 23.8554 2.90369 23.9575 3.00099C26.5207 5.44184 27.8534 9.16378 27.8534 12.962C27.8534 16.7612 26.5207 20.4821 23.9575 22.923C23.8554 23.0203 23.7734 23.1367 23.7164 23.2657C23.6593 23.3947 23.6281 23.5336 23.6247 23.6746C23.6214 23.8156 23.6458 23.9559 23.6966 24.0874C23.7474 24.219 23.8237 24.3393 23.921 24.4414C24.0183 24.5435 24.1347 24.6254 24.2637 24.6825C24.3927 24.7396 24.5316 24.7707 24.6726 24.7741C24.8136 24.7775 24.9539 24.7531 25.0855 24.7023C25.217 24.6514 25.3373 24.5752 25.4394 24.4779C28.5138 21.5495 30 17.2176 30 12.962C30 8.70633 28.5138 4.37444 25.4394 1.44606Z" fill="#61A257"/>
</svg>
