<svg width="52" height="64" viewBox="0 0 52 64" fill="none" xmlns="http://www.w3.org/2000/svg">
<g filter="url(#filter0_di_182_272)">
<circle cx="27" cy="27" r="21" fill="white"/>
</g>
<path d="M20.25 36.6875C19.6313 36.6875 19.1014 36.467 18.6604 36.026C18.2194 35.585 17.9993 35.0555 18 34.4375V24.3125C18 23.9562 18.0799 23.6187 18.2396 23.3C18.3994 22.9812 18.6195 22.7187 18.9 22.5125L25.65 17.45C25.8562 17.3 26.0719 17.1875 26.2969 17.1125C26.5219 17.0375 26.7562 17 27 17C27.2437 17 27.4781 17.0375 27.7031 17.1125C27.9281 17.1875 28.1437 17.3 28.35 17.45L35.1 22.5125C35.3812 22.7187 35.6017 22.9812 35.7615 23.3C35.9212 23.6187 36.0007 23.9562 36 24.3125V34.4375C36 35.0562 35.7795 35.5861 35.3385 36.0271C34.8975 36.4681 34.368 36.6882 33.75 36.6875H29.25V28.8125H24.75V36.6875H20.25Z" fill="url(#paint0_linear_182_272)"/>
<path d="M22.7984 54.1V56.56H24.1584V53.41H24.8584V61.91H24.1584V57.19H22.7984V59.89H19.2084V54.1H22.7984ZM22.1084 54.73H19.8984V59.26H22.1084V54.73ZM26.6384 62.36H25.9384V53.22H26.6384V62.36ZM30.52 61.63H35.63V62.25H29.81V59.26H30.52V61.63ZM35.4 59.76H34.7V53.22H35.4V59.76ZM30.52 58.24C30.18 58.24 29.87 58.1833 29.59 58.07C29.31 57.95 29.0733 57.7967 28.88 57.61C28.6867 57.4167 28.5367 57.2 28.43 56.96C28.3233 56.72 28.27 56.4767 28.27 56.23V55.63C28.27 55.3833 28.3233 55.14 28.43 54.9C28.5367 54.66 28.6867 54.4467 28.88 54.26C29.0733 54.0667 29.31 53.9133 29.59 53.8C29.87 53.68 30.18 53.62 30.52 53.62C30.86 53.62 31.17 53.68 31.45 53.8C31.73 53.9133 31.9667 54.0667 32.16 54.26C32.3533 54.4467 32.5033 54.66 32.61 54.9C32.7167 55.14 32.77 55.3833 32.77 55.63V56.23C32.77 56.4767 32.7167 56.72 32.61 56.96C32.5033 57.2 32.3533 57.4167 32.16 57.61C31.9667 57.7967 31.73 57.95 31.45 58.07C31.17 58.1833 30.86 58.24 30.52 58.24ZM30.52 54.25C30.2867 54.25 30.0733 54.29 29.88 54.37C29.6867 54.45 29.52 54.5567 29.38 54.69C29.2467 54.8233 29.14 54.9767 29.06 55.15C28.9867 55.3233 28.95 55.5033 28.95 55.69V56.17C28.95 56.3567 28.9867 56.5367 29.06 56.71C29.14 56.8833 29.2467 57.0367 29.38 57.17C29.52 57.3033 29.6867 57.41 29.88 57.49C30.0733 57.57 30.2867 57.61 30.52 57.61C30.7533 57.61 30.9667 57.57 31.16 57.49C31.3533 57.41 31.5167 57.3033 31.65 57.17C31.79 57.0367 31.8967 56.8833 31.97 56.71C32.05 56.5367 32.09 56.3567 32.09 56.17V55.69C32.09 55.5033 32.05 55.3233 31.97 55.15C31.8967 54.9767 31.79 54.8233 31.65 54.69C31.5167 54.5567 31.3533 54.45 31.16 54.37C30.9667 54.29 30.7533 54.25 30.52 54.25Z" fill="#9C9C9C"/>
<defs>
<filter id="filter0_di_182_272" x="0" y="0" width="52" height="52" filterUnits="userSpaceOnUse" color-interpolation-filters="sRGB">
<feFlood flood-opacity="0" result="BackgroundImageFix"/>
<feColorMatrix in="SourceAlpha" type="matrix" values="0 0 0 0 0 0 0 0 0 0 0 0 0 0 0 0 0 0 127 0" result="hardAlpha"/>
<feOffset dx="-1" dy="-1"/>
<feGaussianBlur stdDeviation="2.5"/>
<feComposite in2="hardAlpha" operator="out"/>
<feColorMatrix type="matrix" values="0 0 0 0 0 0 0 0 0 0 0 0 0 0 0 0 0 0 0.1 0"/>
<feBlend mode="normal" in2="BackgroundImageFix" result="effect1_dropShadow_182_272"/>
<feBlend mode="normal" in="SourceGraphic" in2="effect1_dropShadow_182_272" result="shape"/>
<feColorMatrix in="SourceAlpha" type="matrix" values="0 0 0 0 0 0 0 0 0 0 0 0 0 0 0 0 0 0 127 0" result="hardAlpha"/>
<feOffset dx="-1" dy="-1"/>
<feGaussianBlur stdDeviation="2"/>
<feComposite in2="hardAlpha" operator="arithmetic" k2="-1" k3="1"/>
<feColorMatrix type="matrix" values="0 0 0 0 0 0 0 0 0 0 0 0 0 0 0 0 0 0 0.25 0"/>
<feBlend mode="normal" in2="shape" result="effect2_innerShadow_182_272"/>
</filter>
<linearGradient id="paint0_linear_182_272" x1="27" y1="17" x2="27" y2="36.6875" gradientUnits="userSpaceOnUse">
<stop stop-color="#C0C0C0"/>
<stop offset="1" stop-color="#D9D9D9"/>
</linearGradient>
</defs>
</svg>
