<svg width="42" height="58" viewBox="0 0 42 58" fill="none" xmlns="http://www.w3.org/2000/svg">
<g filter="url(#filter0_i_182_277)">
<circle cx="21" cy="21" r="21" fill="white"/>
</g>
<path d="M16.7984 48.1V50.56H18.1584V47.41H18.8584V55.91H18.1584V51.19H16.7984V53.89H13.2084V48.1H16.7984ZM16.1084 48.73H13.8984V53.26H16.1084V48.73ZM20.6384 56.36H19.9384V47.22H20.6384V56.36ZM24.52 55.63H29.63V56.25H23.81V53.26H24.52V55.63ZM29.4 53.76H28.7V47.22H29.4V53.76ZM24.52 52.24C24.18 52.24 23.87 52.1833 23.59 52.07C23.31 51.95 23.0733 51.7967 22.88 51.61C22.6867 51.4167 22.5367 51.2 22.43 50.96C22.3233 50.72 22.27 50.4767 22.27 50.23V49.63C22.27 49.3833 22.3233 49.14 22.43 48.9C22.5367 48.66 22.6867 48.4467 22.88 48.26C23.0733 48.0667 23.31 47.9133 23.59 47.8C23.87 47.68 24.18 47.62 24.52 47.62C24.86 47.62 25.17 47.68 25.45 47.8C25.73 47.9133 25.9667 48.0667 26.16 48.26C26.3533 48.4467 26.5033 48.66 26.61 48.9C26.7167 49.14 26.77 49.3833 26.77 49.63V50.23C26.77 50.4767 26.7167 50.72 26.61 50.96C26.5033 51.2 26.3533 51.4167 26.16 51.61C25.9667 51.7967 25.73 51.95 25.45 52.07C25.17 52.1833 24.86 52.24 24.52 52.24ZM24.52 48.25C24.2867 48.25 24.0733 48.29 23.88 48.37C23.6867 48.45 23.52 48.5567 23.38 48.69C23.2467 48.8233 23.14 48.9767 23.06 49.15C22.9867 49.3233 22.95 49.5033 22.95 49.69V50.17C22.95 50.3567 22.9867 50.5367 23.06 50.71C23.14 50.8833 23.2467 51.0367 23.38 51.17C23.52 51.3033 23.6867 51.41 23.88 51.49C24.0733 51.57 24.2867 51.61 24.52 51.61C24.7533 51.61 24.9667 51.57 25.16 51.49C25.3533 51.41 25.5167 51.3033 25.65 51.17C25.79 51.0367 25.8967 50.8833 25.97 50.71C26.05 50.5367 26.09 50.3567 26.09 50.17V49.69C26.09 49.5033 26.05 49.3233 25.97 49.15C25.8967 48.9767 25.79 48.8233 25.65 48.69C25.5167 48.5567 25.3533 48.45 25.16 48.37C24.9667 48.29 24.7533 48.25 24.52 48.25Z" fill="#61A257"/>
<path d="M14.25 30.6875C13.6313 30.6875 13.1014 30.467 12.6604 30.026C12.2194 29.585 11.9993 29.0555 12 28.4375V18.3125C12 17.9562 12.0799 17.6187 12.2396 17.3C12.3994 16.9812 12.6195 16.7187 12.9 16.5125L19.65 11.45C19.8562 11.3 20.0719 11.1875 20.2969 11.1125C20.5219 11.0375 20.7562 11 21 11C21.2437 11 21.4781 11.0375 21.7031 11.1125C21.9281 11.1875 22.1437 11.3 22.35 11.45L29.1 16.5125C29.3812 16.7187 29.6017 16.9812 29.7615 17.3C29.9212 17.6187 30.0007 17.9562 30 18.3125V28.4375C30 29.0562 29.7795 29.5861 29.3385 30.0271C28.8975 30.4681 28.368 30.6882 27.75 30.6875H23.25V22.8125H18.75V30.6875H14.25Z" fill="url(#paint0_linear_182_277)"/>
<defs>
<filter id="filter0_i_182_277" x="0" y="0" width="44" height="44" filterUnits="userSpaceOnUse" color-interpolation-filters="sRGB">
<feFlood flood-opacity="0" result="BackgroundImageFix"/>
<feBlend mode="normal" in="SourceGraphic" in2="BackgroundImageFix" result="shape"/>
<feColorMatrix in="SourceAlpha" type="matrix" values="0 0 0 0 0 0 0 0 0 0 0 0 0 0 0 0 0 0 127 0" result="hardAlpha"/>
<feOffset dx="2" dy="2"/>
<feGaussianBlur stdDeviation="2"/>
<feComposite in2="hardAlpha" operator="arithmetic" k2="-1" k3="1"/>
<feColorMatrix type="matrix" values="0 0 0 0 0 0 0 0 0 0 0 0 0 0 0 0 0 0 0.2 0"/>
<feBlend mode="normal" in2="shape" result="effect1_innerShadow_182_277"/>
</filter>
<linearGradient id="paint0_linear_182_277" x1="21" y1="11" x2="21" y2="30.6875" gradientUnits="userSpaceOnUse">
<stop stop-color="#61A257"/>
<stop offset="0.880208" stop-color="#E3F1A9"/>
</linearGradient>
</defs>
</svg>
