<svg width="46" height="58" viewBox="0 0 46 58" fill="none" xmlns="http://www.w3.org/2000/svg">
<g filter="url(#filter0_i_182_281)">
<circle cx="23" cy="21" r="21" fill="white"/>
</g>
<path d="M5.27609 48.06V53.93H1.06609V48.06H5.27609ZM4.57609 48.7H1.76609V53.29H4.57609V48.7ZM7.69609 50.61H9.21609V51.24H7.69609V56.36H6.98609V47.22H7.69609V50.61ZM17.2377 56.36H16.5277V47.22H17.2377V56.36ZM14.7177 51.46C14.7177 52.3 14.5177 52.9533 14.1177 53.42C13.7243 53.8867 13.171 54.12 12.4577 54.12C11.7443 54.12 11.1877 53.8867 10.7877 53.42C10.3943 52.9533 10.1977 52.3 10.1977 51.46V50.51C10.1977 49.67 10.3943 49.02 10.7877 48.56C11.1877 48.0933 11.7443 47.86 12.4577 47.86C13.171 47.86 13.7243 48.0933 14.1177 48.56C14.5177 49.0267 14.7177 49.68 14.7177 50.52V51.46ZM14.0277 50.64C14.0277 50.26 13.9877 49.9367 13.9077 49.67C13.8343 49.4033 13.7277 49.1867 13.5877 49.02C13.4543 48.8467 13.291 48.72 13.0977 48.64C12.9043 48.56 12.691 48.52 12.4577 48.52C12.2243 48.52 12.011 48.56 11.8177 48.64C11.6243 48.72 11.4577 48.8467 11.3177 49.02C11.1843 49.1867 11.0777 49.4033 10.9977 49.67C10.9243 49.9367 10.8877 50.26 10.8877 50.64V51.34C10.8877 51.72 10.9243 52.0467 10.9977 52.32C11.0777 52.5867 11.1843 52.8067 11.3177 52.98C11.4577 53.1467 11.6243 53.27 11.8177 53.35C12.011 53.43 12.2243 53.47 12.4577 53.47C12.691 53.47 12.9043 53.43 13.0977 53.35C13.291 53.27 13.4543 53.1467 13.5877 52.98C13.7277 52.8067 13.8343 52.5867 13.9077 52.32C13.9877 52.0467 14.0277 51.72 14.0277 51.34V50.64ZM18.8492 53.24H19.7692V48.75H18.8592V48.14H23.4592V48.75H22.5292V53.21C22.7226 53.1967 22.9126 53.1833 23.0992 53.17C23.2859 53.15 23.4659 53.1267 23.6392 53.1L23.6992 53.69C23.2859 53.75 22.8326 53.7933 22.3392 53.82C21.8526 53.84 21.3726 53.85 20.8992 53.85H18.8492V53.24ZM25.0792 55.91H24.3792V51.21H23.1092V50.57H24.3792V47.41H25.0792V55.91ZM26.7792 56.36H26.0792V47.22H26.7792V56.36ZM20.7992 53.24C20.9859 53.24 21.1659 53.24 21.3392 53.24C21.5126 53.24 21.6826 53.2367 21.8492 53.23V48.75H20.4492V53.24H20.7992ZM35.4408 56.36H34.7308V47.22H35.4408V56.36ZM32.9208 51.46C32.9208 52.3 32.7208 52.9533 32.3208 53.42C31.9274 53.8867 31.3741 54.12 30.6608 54.12C29.9474 54.12 29.3908 53.8867 28.9908 53.42C28.5974 52.9533 28.4008 52.3 28.4008 51.46V50.51C28.4008 49.67 28.5974 49.02 28.9908 48.56C29.3908 48.0933 29.9474 47.86 30.6608 47.86C31.3741 47.86 31.9274 48.0933 32.3208 48.56C32.7208 49.0267 32.9208 49.68 32.9208 50.52V51.46ZM32.2308 50.64C32.2308 50.26 32.1908 49.9367 32.1108 49.67C32.0374 49.4033 31.9308 49.1867 31.7908 49.02C31.6574 48.8467 31.4941 48.72 31.3008 48.64C31.1074 48.56 30.8941 48.52 30.6608 48.52C30.4274 48.52 30.2141 48.56 30.0208 48.64C29.8274 48.72 29.6608 48.8467 29.5208 49.02C29.3874 49.1867 29.2808 49.4033 29.2008 49.67C29.1274 49.9367 29.0908 50.26 29.0908 50.64V51.34C29.0908 51.72 29.1274 52.0467 29.2008 52.32C29.2808 52.5867 29.3874 52.8067 29.5208 52.98C29.6608 53.1467 29.8274 53.27 30.0208 53.35C30.2141 53.43 30.4274 53.47 30.6608 53.47C30.8941 53.47 31.1074 53.43 31.3008 53.35C31.4941 53.27 31.6574 53.1467 31.7908 52.98C31.9308 52.8067 32.0374 52.5867 32.1108 52.32C32.1908 52.0467 32.2308 51.72 32.2308 51.34V50.64ZM42.4623 48.68H40.3923V50.14C40.3923 50.3333 40.399 50.5 40.4123 50.64C40.4257 50.78 40.4523 50.9133 40.4923 51.04C40.5323 51.1667 40.589 51.2933 40.6623 51.42C40.7423 51.54 40.849 51.6767 40.9823 51.83C41.1757 52.0567 41.4157 52.3133 41.7023 52.6C41.9957 52.8867 42.329 53.1967 42.7023 53.53L42.2423 54C41.8957 53.68 41.5957 53.3933 41.3423 53.14C41.0957 52.8867 40.8723 52.6533 40.6723 52.44C40.5257 52.2867 40.3923 52.14 40.2723 52C40.1523 51.86 40.079 51.7567 40.0523 51.69H40.0423C40.029 51.7367 39.9957 51.7967 39.9423 51.87C39.8957 51.9433 39.8357 52.0233 39.7623 52.11C39.6957 52.1967 39.6223 52.2867 39.5423 52.38C39.4623 52.4667 39.3857 52.55 39.3123 52.63C39.2457 52.7033 39.1557 52.8 39.0423 52.92C38.929 53.0333 38.8023 53.16 38.6623 53.3C38.529 53.4333 38.3823 53.5767 38.2223 53.73C38.069 53.8767 37.919 54.0133 37.7723 54.14L37.3023 53.67C37.6223 53.39 37.919 53.1133 38.1923 52.84C38.4723 52.5667 38.729 52.3 38.9623 52.04C39.1223 51.86 39.249 51.7 39.3423 51.56C39.4357 51.4133 39.5057 51.27 39.5523 51.13C39.6057 50.99 39.639 50.8467 39.6523 50.7C39.6723 50.5533 39.6823 50.3833 39.6823 50.19V48.68H37.5823V48.06H42.4623V48.68ZM44.6523 56.36H43.9423V47.22H44.6523V56.36Z" fill="#61A257"/>
<path d="M23 21C21.7625 21 20.7031 20.5594 19.8219 19.6781C18.9406 18.7969 18.5 17.7375 18.5 16.5C18.5 15.2625 18.9406 14.2031 19.8219 13.3219C20.7031 12.4406 21.7625 12 23 12C24.2375 12 25.2969 12.4406 26.1781 13.3219C27.0594 14.2031 27.5 15.2625 27.5 16.5C27.5 17.7375 27.0594 18.7969 26.1781 19.6781C25.2969 20.5594 24.2375 21 23 21ZM14 30V26.85C14 26.2125 14.1643 25.6264 14.4928 25.0916C14.8213 24.5569 15.257 24.1492 15.8 23.8687C16.9625 23.2875 18.1437 22.8514 19.3437 22.5604C20.5437 22.2694 21.7625 22.1242 23 22.125C24.2375 22.125 25.4562 22.2705 26.6562 22.5615C27.8562 22.8525 29.0375 23.2882 30.2 23.8687C30.7437 24.15 31.1799 24.558 31.5084 25.0927C31.8369 25.6275 32.0007 26.2132 32 26.85V30H14Z" fill="url(#paint0_linear_182_281)"/>
<defs>
<filter id="filter0_i_182_281" x="2" y="0" width="44" height="44" filterUnits="userSpaceOnUse" color-interpolation-filters="sRGB">
<feFlood flood-opacity="0" result="BackgroundImageFix"/>
<feBlend mode="normal" in="SourceGraphic" in2="BackgroundImageFix" result="shape"/>
<feColorMatrix in="SourceAlpha" type="matrix" values="0 0 0 0 0 0 0 0 0 0 0 0 0 0 0 0 0 0 127 0" result="hardAlpha"/>
<feOffset dx="2" dy="2"/>
<feGaussianBlur stdDeviation="2"/>
<feComposite in2="hardAlpha" operator="arithmetic" k2="-1" k3="1"/>
<feColorMatrix type="matrix" values="0 0 0 0 0 0 0 0 0 0 0 0 0 0 0 0 0 0 0.2 0"/>
<feBlend mode="normal" in2="shape" result="effect1_innerShadow_182_281"/>
</filter>
<linearGradient id="paint0_linear_182_281" x1="23" y1="12" x2="23" y2="30" gradientUnits="userSpaceOnUse">
<stop stop-color="#61A257"/>
<stop offset="0.880208" stop-color="#E3F1A9"/>
</linearGradient>
</defs>
</svg>
