<svg width="66" height="66" viewBox="0 0 66 66" fill="none" xmlns="http://www.w3.org/2000/svg">
<g filter="url(#filter0_d_53_240)">
<circle cx="33" cy="29" r="29" fill="#98DC63"/>
</g>
<path d="M20.4077 29.0781V34H19.1506V25.8182H20.3651V27.0966H20.4716C20.6634 26.6811 20.9545 26.3473 21.3452 26.0952C21.7358 25.8395 22.2401 25.7116 22.858 25.7116C23.4119 25.7116 23.8967 25.8253 24.3121 26.0526C24.7276 26.2763 25.0508 26.6172 25.2816 27.0753C25.5124 27.5298 25.6278 28.1051 25.6278 28.8011V34H24.3707V28.8864C24.3707 28.2436 24.2038 27.7429 23.87 27.3842C23.5362 27.022 23.0781 26.8409 22.4957 26.8409C22.0945 26.8409 21.7358 26.9279 21.4197 27.1019C21.1072 27.2759 20.8604 27.5298 20.6793 27.8636C20.4982 28.1974 20.4077 28.6023 20.4077 29.0781ZM31.3554 34.1705C30.567 34.1705 29.887 33.9964 29.3153 33.6484C28.7471 33.2969 28.3085 32.8068 27.9996 32.1783C27.6942 31.5462 27.5415 30.8111 27.5415 29.973C27.5415 29.1349 27.6942 28.3963 27.9996 27.7571C28.3085 27.1143 28.7382 26.6136 29.2886 26.255C29.8426 25.8928 30.4889 25.7116 31.2275 25.7116C31.6537 25.7116 32.0745 25.7827 32.49 25.9247C32.9055 26.0668 33.2836 26.2976 33.6246 26.6172C33.9655 26.9332 34.2371 27.3523 34.4395 27.8743C34.642 28.3963 34.7432 29.0391 34.7432 29.8026V30.3352H28.4363V29.2486H33.4648C33.4648 28.7869 33.3724 28.375 33.1878 28.0128C33.0067 27.6506 32.7474 27.3647 32.4101 27.1552C32.0763 26.9457 31.6821 26.8409 31.2275 26.8409C30.7268 26.8409 30.2936 26.9652 29.9278 27.2138C29.5656 27.4588 29.2868 27.7784 29.0915 28.1726C28.8962 28.5668 28.7986 28.9893 28.7986 29.4403V30.1648C28.7986 30.7827 28.9051 31.3065 29.1182 31.7362C29.3348 32.1623 29.6349 32.4872 30.0184 32.7109C30.4019 32.9311 30.8476 33.0412 31.3554 33.0412C31.6856 33.0412 31.9839 32.995 32.2503 32.9027C32.5202 32.8068 32.7528 32.6648 32.9481 32.4766C33.1434 32.2848 33.2943 32.0469 33.4008 31.7628L34.6153 32.1037C34.4875 32.5156 34.2726 32.8778 33.9708 33.1903C33.6689 33.4993 33.2961 33.7408 32.8522 33.9148C32.4083 34.0852 31.9094 34.1705 31.3554 34.1705ZM38.5091 34L36.0162 25.8182H37.3373L39.1057 32.0824H39.191L40.9381 25.8182H42.2805L44.0063 32.0611H44.0915L45.86 25.8182H47.181L44.6881 34H43.4523L41.6626 27.7145H41.5347L39.7449 34H38.5091Z" fill="black"/>
<defs>
<filter id="filter0_d_53_240" x="0" y="0" width="66" height="66" filterUnits="userSpaceOnUse" color-interpolation-filters="sRGB">
<feFlood flood-opacity="0" result="BackgroundImageFix"/>
<feColorMatrix in="SourceAlpha" type="matrix" values="0 0 0 0 0 0 0 0 0 0 0 0 0 0 0 0 0 0 127 0" result="hardAlpha"/>
<feOffset dy="4"/>
<feGaussianBlur stdDeviation="2"/>
<feComposite in2="hardAlpha" operator="out"/>
<feColorMatrix type="matrix" values="0 0 0 0 0 0 0 0 0 0 0 0 0 0 0 0 0 0 0.1 0"/>
<feBlend mode="normal" in2="BackgroundImageFix" result="effect1_dropShadow_53_240"/>
<feBlend mode="normal" in="SourceGraphic" in2="effect1_dropShadow_53_240" result="shape"/>
</filter>
</defs>
</svg>
