<svg width="22" height="50" viewBox="0 0 22 50" fill="none" xmlns="http://www.w3.org/2000/svg">
<path d="M0.762124 49.0119C0.254041 48.3531 0 47.5731 0 46.6719C0 45.7707 0.254041 44.9917 0.762124 44.3347L15.6489 25.0329L0.711315 5.66535C0.237105 5.05051 0 4.28195 0 3.35968C0 2.43742 0.254041 1.6469 0.762124 0.988142C1.27021 0.329381 1.87178 0 2.56683 0C3.26189 0 3.86278 0.329381 4.36951 0.988142L21.4411 23.1884C21.6443 23.4519 21.7886 23.7374 21.874 24.0448C21.9593 24.3522 22.0013 24.6816 22 25.0329C22 25.3843 21.9573 25.7137 21.8719 26.0211C21.7866 26.3285 21.643 26.614 21.4411 26.8775L4.3187 49.0777C3.84449 49.6926 3.25986 50 2.5648 50C1.86974 50 1.26885 49.6706 0.762124 49.0119Z" fill="#61A257"/>
</svg>
