<svg width="22" height="50" viewBox="0 0 22 50" fill="none" xmlns="http://www.w3.org/2000/svg">
<path d="M21.2379 0.988143C21.746 1.6469 22 2.42688 22 3.32807C22 4.22925 21.746 5.00834 21.2379 5.66535L6.35106 24.9671L21.2887 44.3347C21.7629 44.9495 22 45.7181 22 46.6403C22 47.5626 21.746 48.3531 21.2379 49.0119C20.7298 49.6706 20.1282 50 19.4332 50C18.7381 50 18.1372 49.6706 17.6305 49.0119L0.558921 26.8116C0.355688 26.5481 0.211394 26.2626 0.126036 25.9552C0.0406781 25.6478 -0.00132392 25.3184 3.09697e-05 24.9671C3.09697e-05 24.6157 0.0427093 24.2863 0.128067 23.9789C0.213425 23.6715 0.357043 23.386 0.558921 23.1225L17.6813 0.922268C18.1555 0.307424 18.7401 1.04521e-06 19.4352 1.04521e-06C20.1303 1.04521e-06 20.7311 0.329382 21.2379 0.988143Z" fill="#61A257"/>
</svg>
