<svg width="30" height="30" viewBox="0 0 30 30" fill="none" xmlns="http://www.w3.org/2000/svg">
<path d="M23.295 19.5874L25.44 13.1499C27.315 7.52742 28.2525 4.71617 26.7675 3.23242C25.2838 1.74867 22.4725 2.68492 16.8488 4.55992L10.4125 6.70492C5.875 8.21742 3.60625 8.97492 2.9625 10.0837C2.66139 10.6019 2.50278 11.1906 2.50278 11.7899C2.50278 12.3893 2.66139 12.978 2.9625 13.4962C3.60625 14.6062 5.875 15.3624 10.4125 16.8762C10.975 17.0637 11.6088 16.9287 12.03 16.5124L18.9125 9.69367C19.003 9.59543 19.1124 9.51655 19.2342 9.46181C19.3561 9.40708 19.4877 9.37763 19.6213 9.37523C19.7548 9.37284 19.8874 9.39756 20.0111 9.44789C20.1348 9.49822 20.247 9.57313 20.341 9.66807C20.4349 9.76301 20.5086 9.87602 20.5576 10.0003C20.6066 10.1245 20.6299 10.2574 20.626 10.3909C20.6222 10.5244 20.5913 10.6557 20.5353 10.7769C20.4793 10.8982 20.3992 11.0068 20.3 11.0962L13.53 17.8037C13.3042 18.0345 13.1468 18.3234 13.0753 18.6383C13.0038 18.9532 13.021 19.2817 13.125 19.5874C14.6375 24.1249 15.395 26.3949 16.5038 27.0399C17.0222 27.3409 17.6111 27.4994 18.2106 27.4994C18.8101 27.4994 19.399 27.3409 19.9175 27.0399C21.0263 26.3949 21.7813 24.1262 23.295 19.5874Z" fill="#61A257"/>
</svg>
