<svg width="87" height="71" viewBox="0 0 87 71" fill="none" xmlns="http://www.w3.org/2000/svg">
<g clip-path="url(#clip0_179_7)">
<path d="M28.275 48.8125C27.9501 48.8125 27.6252 48.861 27.3153 48.9637C25.5535 49.5475 23.7007 49.9219 21.75 49.9219C19.7993 49.9219 17.9464 49.5475 16.1833 48.9637C15.8734 48.861 15.5499 48.8125 15.225 48.8125C6.78869 48.8125 -0.0448839 55.8127 -2.45365e-05 64.4297C0.0190067 68.0713 2.9539 71 6.52498 71H36.975C40.5461 71 43.4809 68.0713 43.5 64.4297C43.5448 55.8127 36.7113 48.8125 28.275 48.8125ZM21.75 44.375C28.9574 44.375 34.8 38.4149 34.8 31.0625C34.8 23.7101 28.9574 17.75 21.75 17.75C14.5426 17.75 8.69998 23.7101 8.69998 31.0625C8.69998 38.4149 14.5426 44.375 21.75 44.375ZM80.475 0H28.275C24.6767 0 21.75 3.08545 21.75 6.87674V13.3125C24.9336 13.3125 27.8808 14.2527 30.45 15.7809V8.875H78.3V48.8125H69.6V39.9375H52.2V48.8125H41.8361C44.4325 51.1269 46.3384 54.1833 47.2315 57.6875H80.475C84.0732 57.6875 87 54.6021 87 50.8108V6.87674C87 3.08545 84.0732 0 80.475 0Z" fill="black" fill-opacity="0.7"/>
</g>
<defs>
<clipPath id="clip0_179_7">
<rect width="87" height="71" fill="white"/>
</clipPath>
</defs>
</svg>
