<svg width="27" height="27" viewBox="0 0 27 27" fill="none" xmlns="http://www.w3.org/2000/svg">
<path d="M26.2399 6.56153L20.4399 0.760728C20.1988 0.519554 19.9126 0.328239 19.5975 0.197711C19.2825 0.0671828 18.9448 0 18.6038 0C18.2627 0 17.9251 0.0671828 17.61 0.197711C17.295 0.328239 17.0087 0.519554 16.7676 0.760728L0.760699 16.7678C0.518736 17.0081 0.326901 17.2941 0.196322 17.6092C0.0657424 17.9243 -0.000984361 18.2621 1.09731e-05 18.6032V24.404C1.09731e-05 25.0925 0.273539 25.7528 0.760422 26.2396C1.24731 26.7265 1.90766 27 2.59622 27H8.39744C8.7385 27.0009 9.07635 26.9342 9.39143 26.8036C9.7065 26.673 9.99253 26.4812 10.233 26.2394L26.2399 10.2323C26.7266 9.74548 27 9.08529 27 8.39692C27 7.70855 26.7266 7.04836 26.2399 6.56153ZM8.17806 23.8848H3.11546V18.8225L14.0195 7.91925L19.0821 12.9815L8.17806 23.8848ZM21.2889 10.7749L16.2263 5.71263L18.607 3.33208L23.6696 8.39432L21.2889 10.7749Z" fill="#61A257"/>
</svg>
