<svg width="72" height="104" viewBox="0 0 72 104" fill="none" xmlns="http://www.w3.org/2000/svg">
<g filter="url(#filter0_d_338_24)">
<rect x="4" width="64" height="64" rx="20" fill="#AADF98"/>
</g>
<path d="M10.3828 76.676C8.93084 76.676 7.91084 77.684 7.91084 79.136C7.91084 80.6 8.93084 81.596 10.3828 81.596C11.8108 81.596 12.8428 80.6 12.8428 79.136C12.8428 77.684 11.8108 76.676 10.3828 76.676ZM10.3828 77.492C11.2708 77.492 11.9428 78.176 11.9428 79.136C11.9428 80.096 11.2708 80.78 10.3828 80.78C9.48284 80.78 8.82284 80.096 8.82284 79.136C8.82284 78.176 9.48284 77.492 10.3828 77.492ZM15.9988 76.1V81.992H16.9468V76.1H15.9988ZM14.2948 78.584V79.4H16.3348V78.584H14.2948ZM13.6708 76.304V81.92H14.6188V76.304H13.6708ZM9.84284 82.496V86.792H16.9468V82.496H15.9868V83.78H10.8268V82.496H9.84284ZM10.8268 84.572H15.9868V85.976H10.8268V84.572ZM24.8809 77.024V78.968C24.8809 80.948 23.6449 83.036 22.0729 83.828L22.6849 84.62C24.4009 83.708 25.6969 81.368 25.6969 78.968V77.024H24.8809ZM25.0609 77.024V78.968C25.0609 81.296 26.3209 83.516 28.0009 84.416L28.6129 83.624C27.0769 82.856 25.8649 80.876 25.8649 78.968V77.024H25.0609ZM29.5609 76.088V86.936H30.5689V76.088H29.5609ZM30.3289 80.48V81.32H32.3449V80.48H30.3289ZM35.68 79.76V81.812H36.664V79.76H35.68ZM39.664 79.76V81.812H40.648V79.76H39.664ZM33.256 81.452V82.256H43.06V81.452H33.256ZM38.152 83.072C35.824 83.072 34.432 83.756 34.432 84.992C34.432 86.228 35.824 86.924 38.152 86.924C40.48 86.924 41.872 86.228 41.872 84.992C41.872 83.756 40.48 83.072 38.152 83.072ZM38.152 83.84C39.856 83.84 40.864 84.26 40.864 84.992C40.864 85.736 39.856 86.144 38.152 86.144C36.46 86.144 35.44 85.736 35.44 84.992C35.44 84.26 36.46 83.84 38.152 83.84ZM38.164 76.28C35.8 76.28 34.348 77.036 34.348 78.308C34.348 79.568 35.8 80.312 38.164 80.312C40.516 80.312 41.98 79.568 41.98 78.308C41.98 77.036 40.516 76.28 38.164 76.28ZM38.164 77.06C39.892 77.06 40.96 77.516 40.96 78.308C40.96 79.088 39.892 79.544 38.164 79.544C36.436 79.544 35.368 79.088 35.368 78.308C35.368 77.516 36.436 77.06 38.164 77.06ZM47.163 77.024V78.968C47.163 81.02 45.855 83.096 44.247 83.864L44.859 84.68C46.635 83.78 47.979 81.464 47.979 78.968V77.024H47.163ZM47.331 77.024V78.968C47.331 81.38 48.687 83.612 50.451 84.476L51.051 83.684C49.443 82.94 48.147 80.948 48.147 78.968V77.024H47.331ZM52.179 76.076V86.948H53.175V76.076H52.179ZM62.7621 76.088V84.02H63.7581V76.088H62.7621ZM63.4461 79.376V80.204H65.3661V79.376H63.4461ZM59.7981 76.928V77.36C59.7981 79.448 58.0821 81.128 55.3461 81.968L55.7781 82.784C58.8861 81.788 60.8541 79.736 60.8541 76.928H59.7981ZM55.7901 76.928V77.744H60.3021V76.928H55.7901ZM56.9901 85.88V86.696H64.2381V85.88H56.9901ZM56.9901 83.216V86.204H57.9861V83.216H56.9901ZM20.5899 93.044V93.872H23.3619V93.044H20.5899ZM22.9419 91.088V96.68H23.9379V91.088H22.9419ZM16.9539 97.244V98.036H22.9539V99.092H16.9899V101.48H17.9619V99.836H23.9379V97.244H16.9539ZM16.9899 101V101.792H24.3459V101H16.9899ZM17.7219 91.424V92.444C17.7219 94.016 16.6419 95.372 15.0099 95.924L15.5259 96.716C17.3379 96.068 18.5379 94.448 18.5379 92.444V91.424H17.7219ZM17.8899 91.424V92.444C17.8899 94.28 19.0899 95.84 20.8419 96.464L21.3579 95.684C19.7859 95.168 18.6939 93.86 18.6939 92.444V91.424H17.8899ZM31.8449 93.896V94.724H34.2929V93.896H31.8449ZM33.9809 91.088V97.556H34.9769V91.088H33.9809ZM31.4129 97.88C29.1689 97.88 27.7889 98.636 27.7889 99.908C27.7889 101.192 29.1689 101.924 31.4129 101.924C33.6449 101.924 35.0249 101.192 35.0249 99.908C35.0249 98.636 33.6449 97.88 31.4129 97.88ZM31.4129 98.66C33.0449 98.66 34.0409 99.116 34.0409 99.908C34.0409 100.688 33.0449 101.144 31.4129 101.144C29.7809 101.144 28.7849 100.688 28.7849 99.908C28.7849 99.116 29.7809 98.66 31.4129 98.66ZM28.8209 92.18V93.056C28.8209 94.616 27.7049 96.068 26.0969 96.656L26.6129 97.448C28.4129 96.776 29.6369 95.06 29.6369 93.056V92.18H28.8209ZM29.0129 92.18V93.056C29.0129 94.88 30.1769 96.512 31.9409 97.148L32.4449 96.356C30.8729 95.804 29.8169 94.46 29.8169 93.056V92.18H29.0129ZM26.3969 91.88V92.696H32.1929V91.88H26.3969ZM44.444 91.088V101.936H45.44V91.088H44.444ZM45.2 95.54V96.38H47.216V95.54H45.2ZM37.04 92.816V93.632H43.436V92.816H37.04ZM40.28 94.532C38.756 94.532 37.64 95.564 37.64 97.028C37.64 98.492 38.756 99.524 40.28 99.524C41.816 99.524 42.92 98.492 42.92 97.028C42.92 95.564 41.816 94.532 40.28 94.532ZM40.28 95.36C41.264 95.36 41.972 96.044 41.972 97.028C41.972 98 41.264 98.696 40.28 98.696C39.296 98.696 38.588 98 38.588 97.028C38.588 96.044 39.296 95.36 40.28 95.36ZM39.764 91.22V93.188H40.76V91.22H39.764ZM56.0351 91.088V101.936H57.0311V91.088H56.0351ZM52.8551 92.252V92.42C52.8551 95.3 51.4031 97.604 48.2711 99.116L48.7991 99.92C52.4231 98.144 53.8391 95.396 53.8391 92.252H52.8551ZM48.7631 92.252V93.068H53.2871V92.252H48.7631Z" fill="black"/>
<path d="M36 44.21C33.2152 44.21 30.5445 43.1038 28.5754 41.1346C26.6062 39.1655 25.5 36.4948 25.5 33.71C25.5 30.9252 26.6062 28.2545 28.5754 26.2854C30.5445 24.3162 33.2152 23.21 36 23.21C38.7848 23.21 41.4555 24.3162 43.4246 26.2854C45.3938 28.2545 46.5 30.9252 46.5 33.71C46.5 36.4948 45.3938 39.1655 43.4246 41.1346C41.4555 43.1038 38.7848 44.21 36 44.21ZM36 20.21C32.4196 20.21 28.9858 21.6323 26.4541 24.1641C23.9223 26.6958 22.5 30.1296 22.5 33.71C22.5 37.2904 23.9223 40.7242 26.4541 43.2559C28.9858 45.7877 32.4196 47.21 36 47.21C39.5804 47.21 43.0142 45.7877 45.5459 43.2559C48.0777 40.7242 49.5 37.2904 49.5 33.71C49.5 30.1296 48.0777 26.6958 45.5459 24.1641C43.0142 21.6323 39.5804 20.21 36 20.21ZM36.75 26.21H34.5V35.21L41.625 39.485L42.75 37.64L36.75 34.085V26.21ZM29.82 19.295L27.9 17L21 22.775L22.935 25.07L29.82 19.295ZM51 22.79L44.1 17L42.165 19.295L49.065 25.085L51 22.79Z" fill="white"/>
<defs>
<filter id="filter0_d_338_24" x="0" y="0" width="72" height="72" filterUnits="userSpaceOnUse" color-interpolation-filters="sRGB">
<feFlood flood-opacity="0" result="BackgroundImageFix"/>
<feColorMatrix in="SourceAlpha" type="matrix" values="0 0 0 0 0 0 0 0 0 0 0 0 0 0 0 0 0 0 127 0" result="hardAlpha"/>
<feOffset dy="4"/>
<feGaussianBlur stdDeviation="2"/>
<feComposite in2="hardAlpha" operator="out"/>
<feColorMatrix type="matrix" values="0 0 0 0 0 0 0 0 0 0 0 0 0 0 0 0 0 0 0.1 0"/>
<feBlend mode="normal" in2="BackgroundImageFix" result="effect1_dropShadow_338_24"/>
<feBlend mode="normal" in="SourceGraphic" in2="effect1_dropShadow_338_24" result="shape"/>
</filter>
</defs>
</svg>
