<svg width="15" height="17" viewBox="0 0 15 17" fill="none" xmlns="http://www.w3.org/2000/svg">
<path d="M3.16663 7.50008C3.16663 5.45764 3.16663 4.43569 3.80146 3.80158C4.43557 3.16675 5.45751 3.16675 7.49996 3.16675H9.66663C11.7091 3.16675 12.731 3.16675 13.3651 3.80158C14 4.43569 14 5.45764 14 7.50008V11.1112C14 13.1536 14 14.1756 13.3651 14.8097C12.731 15.4445 11.7091 15.4445 9.66663 15.4445H7.49996C5.45751 15.4445 4.43557 15.4445 3.80146 14.8097C3.16663 14.1756 3.16663 13.1536 3.16663 11.1112V7.50008Z" stroke="black" stroke-width="1.5"/>
<path opacity="0.5" d="M3.16667 13.2778C2.59203 13.2778 2.04093 13.0495 1.6346 12.6432C1.22827 12.2368 1 11.6857 1 11.1111V6.77778C1 4.05428 1 2.69217 1.84644 1.84644C2.69217 1 4.05428 1 6.77778 1H9.66667C10.2413 1 10.7924 1.22827 11.1987 1.6346C11.6051 2.04093 11.8333 2.59203 11.8333 3.16667" stroke="black" stroke-width="1.5"/>
</svg>
