<svg width="72" height="89" viewBox="0 0 72 89" fill="none" xmlns="http://www.w3.org/2000/svg">
<g filter="url(#filter0_d_1102_5)">
<rect x="4" width="64" height="64" rx="20" fill="#DFC0DF"/>
</g>
<path d="M13.656 77.24H20.64V78.044H13.656V77.24ZM12.6 84.524H22.404V85.352H12.6V84.524ZM20.112 77.24H21.084V78.32C21.084 79.712 21.084 81.26 20.676 83.6L19.68 83.504C20.112 81.284 20.112 79.664 20.112 78.32V77.24ZM23.6271 81.452H33.4671V82.256H23.6271V81.452ZM28.0431 81.74H29.0271V83.6H28.0431V81.74ZM24.9351 82.952H25.9191V84.14H31.2111V82.952H32.1951V86.792H24.9351V82.952ZM25.9191 84.896V86.012H31.2111V84.896H25.9191ZM24.8751 76.316H32.1951V78.8H25.8831V80.24H24.8991V78.056H31.2231V77.084H24.8751V76.316ZM24.8991 79.82H32.4351V80.588H24.8991V79.82ZM40.7171 76.64H41.5331V77.756C41.5331 79.808 40.3571 81.5 38.5331 82.196L38.0171 81.392C39.6491 80.804 40.7171 79.376 40.7171 77.756V76.64ZM40.8971 76.64H41.7011V77.828C41.7011 79.292 42.7811 80.648 44.3411 81.188L43.8371 81.98C42.0731 81.332 40.8971 79.712 40.8971 77.828V76.64ZM45.4691 76.088H46.4651V82.652H45.4691V76.088ZM46.1891 78.944H48.0731V79.784H46.1891V78.944ZM39.4211 83.192H46.4651V86.936H45.4691V84.02H39.4211V83.192ZM57.3362 76.088H58.2962V86.936H57.3362V76.088ZM53.3882 79.976H55.4642V80.804H53.3882V79.976ZM55.1642 76.34H56.1002V86.384H55.1642V76.34ZM51.3002 77.768H52.0682V79.148C52.0682 81.524 51.1562 83.768 49.5602 84.776L48.9482 84.032C50.4602 83.12 51.3002 81.14 51.3002 79.148V77.768ZM51.5042 77.768H52.2722V79.148C52.2722 81.032 53.0882 82.916 54.5762 83.78L53.9642 84.512C52.3802 83.552 51.5042 81.416 51.5042 79.148V77.768ZM49.2482 77.348H54.2042V78.176H49.2482V77.348Z" fill="black"/>
<path d="M26.625 49C25.5937 49 24.7106 48.6298 23.9756 47.8893C23.2406 47.1489 22.8737 46.2598 22.875 45.2222V20.6667H21V16.8889H30.375V15H41.625V16.8889H51V20.6667H49.125V45.2222C49.125 46.2611 48.7575 47.1508 48.0225 47.8912C47.2875 48.6317 46.405 49.0013 45.375 49H26.625ZM45.375 20.6667H26.625V45.2222H45.375V20.6667ZM30.375 41.4444H34.125V24.4444H30.375V41.4444ZM37.875 41.4444H41.625V24.4444H37.875V41.4444Z" fill="white"/>
<defs>
<filter id="filter0_d_1102_5" x="0" y="0" width="72" height="72" filterUnits="userSpaceOnUse" color-interpolation-filters="sRGB">
<feFlood flood-opacity="0" result="BackgroundImageFix"/>
<feColorMatrix in="SourceAlpha" type="matrix" values="0 0 0 0 0 0 0 0 0 0 0 0 0 0 0 0 0 0 127 0" result="hardAlpha"/>
<feOffset dy="4"/>
<feGaussianBlur stdDeviation="2"/>
<feComposite in2="hardAlpha" operator="out"/>
<feColorMatrix type="matrix" values="0 0 0 0 0 0 0 0 0 0 0 0 0 0 0 0 0 0 0.1 0"/>
<feBlend mode="normal" in2="BackgroundImageFix" result="effect1_dropShadow_1102_5"/>
<feBlend mode="normal" in="SourceGraphic" in2="effect1_dropShadow_1102_5" result="shape"/>
</filter>
</defs>
</svg>
