<svg width="72" height="104" viewBox="0 0 72 104" fill="none" xmlns="http://www.w3.org/2000/svg">
<g filter="url(#filter0_d_338_39)">
<rect x="4" width="64" height="64" rx="20" fill="#98D2DF"/>
</g>
<path d="M12.7029 77.24V78.044H19.6869V77.24H12.7029ZM11.6469 84.524V85.352H21.4509V84.524H11.6469ZM19.1589 77.24V78.32C19.1589 79.664 19.1589 81.284 18.7269 83.504L19.7229 83.6C20.1309 81.26 20.1309 79.712 20.1309 78.32V77.24H19.1589ZM22.6739 81.452V82.256H32.5139V81.452H22.6739ZM27.0899 81.74V83.6H28.0739V81.74H27.0899ZM23.9819 82.952V86.792H31.2419V82.952H30.2579V84.14H24.9659V82.952H23.9819ZM24.9659 84.896H30.2579V86.012H24.9659V84.896ZM23.9219 76.316V77.084H30.2699V78.056H23.9459V80.24H24.9299V78.8H31.2419V76.316H23.9219ZM23.9459 79.82V80.588H31.4819V79.82H23.9459ZM38.264 77.144V77.96H45.152V77.144H38.264ZM37.088 84.644V85.46H46.892V84.644H37.088ZM44.744 77.144V78.176C44.744 79.46 44.744 80.984 44.276 83.084L45.272 83.204C45.716 80.984 45.716 79.496 45.716 78.176V77.144H44.744ZM44.96 79.748L37.964 80.024L38.12 80.888L44.96 80.504V79.748ZM40.904 81.836V84.944H41.9V81.836H40.904ZM49.3751 81.284V82.1H56.8271V81.284H49.3751ZM48.1391 84.644V85.472H57.9671V84.644H48.1391ZM49.3751 77.084V81.644H50.3711V77.912H56.7191V77.084H49.3751ZM17.8539 96.176V97.568H18.8499V96.176H17.8539ZM22.4259 91.1V98.372H23.4219V91.1H22.4259ZM23.0019 94.376V95.204H25.0059V94.376H23.0019ZM15.0819 98.06C16.9779 98.048 19.5459 98.036 21.8619 97.628L21.7779 96.92C19.5339 97.244 16.8939 97.244 14.9499 97.244L15.0819 98.06ZM16.2939 98.912V99.704H22.4259V101.936H23.4219V98.912H16.2939ZM15.2259 92.072V92.816H21.4539V92.072H15.2259ZM18.3459 93.236C16.8099 93.236 15.8139 93.848 15.8139 94.844C15.8139 95.84 16.8099 96.452 18.3459 96.452C19.8699 96.452 20.8659 95.84 20.8659 94.844C20.8659 93.848 19.8699 93.236 18.3459 93.236ZM18.3459 93.92C19.3059 93.92 19.9299 94.268 19.9299 94.844C19.9299 95.396 19.3059 95.756 18.3459 95.756C17.3739 95.756 16.7499 95.396 16.7499 94.844C16.7499 94.268 17.3739 93.92 18.3459 93.92ZM17.8539 91.004V92.432H18.8499V91.004H17.8539ZM33.9449 91.1V99.02H34.9529V91.1H33.9449ZM27.9809 100.88V101.696H35.2769V100.88H27.9809ZM27.9809 98.204V101.156H28.9649V98.204H27.9809ZM29.1329 91.844C27.5129 91.844 26.3009 92.948 26.3009 94.52C26.3009 96.08 27.5129 97.196 29.1329 97.196C30.7529 97.196 31.9529 96.08 31.9529 94.52C31.9529 92.948 30.7529 91.844 29.1329 91.844ZM29.1329 92.708C30.1889 92.708 30.9929 93.452 30.9929 94.52C30.9929 95.576 30.1889 96.32 29.1329 96.32C28.0769 96.32 27.2729 95.576 27.2729 94.52C27.2729 93.452 28.0769 92.708 29.1329 92.708ZM44.444 91.088V101.936H45.44V91.088H44.444ZM45.2 95.54V96.38H47.216V95.54H45.2ZM37.04 92.816V93.632H43.436V92.816H37.04ZM40.28 94.532C38.756 94.532 37.64 95.564 37.64 97.028C37.64 98.492 38.756 99.524 40.28 99.524C41.816 99.524 42.92 98.492 42.92 97.028C42.92 95.564 41.816 94.532 40.28 94.532ZM40.28 95.36C41.264 95.36 41.972 96.044 41.972 97.028C41.972 98 41.264 98.696 40.28 98.696C39.296 98.696 38.588 98 38.588 97.028C38.588 96.044 39.296 95.36 40.28 95.36ZM39.764 91.22V93.188H40.76V91.22H39.764ZM56.0351 91.088V101.936H57.0311V91.088H56.0351ZM52.8551 92.252V92.42C52.8551 95.3 51.4031 97.604 48.2711 99.116L48.7991 99.92C52.4231 98.144 53.8391 95.396 53.8391 92.252H52.8551ZM48.7631 92.252V93.068H53.2871V92.252H48.7631Z" fill="black"/>
<path d="M47.4093 27.7092V20.6983C47.4093 19.8016 46.6756 19.0679 45.7789 19.0679H44.1485C43.2518 19.0679 42.5181 19.8016 42.5181 20.6983V23.307L37.0888 18.4158C36.4692 17.8614 35.5236 17.8614 34.904 18.4158L21.2737 30.6928C20.7193 31.182 21.0617 32.1113 21.8117 32.1113H24.5834V43.5243C24.5834 44.421 25.3171 45.1547 26.2138 45.1547H31.1051C32.0018 45.1547 32.7355 44.421 32.7355 43.5243V35.3721H39.2572V43.5243C39.2572 44.421 39.9909 45.1547 40.8876 45.1547H45.7789C46.6756 45.1547 47.4093 44.421 47.4093 43.5243V32.1113H50.181C50.931 32.1113 51.2897 31.182 50.7191 30.6928L47.4093 27.7092ZM32.7355 28.8505C32.7355 27.057 34.2029 25.5896 35.9964 25.5896C37.7898 25.5896 39.2572 27.057 39.2572 28.8505H32.7355Z" fill="white"/>
<defs>
<filter id="filter0_d_338_39" x="0" y="0" width="72" height="72" filterUnits="userSpaceOnUse" color-interpolation-filters="sRGB">
<feFlood flood-opacity="0" result="BackgroundImageFix"/>
<feColorMatrix in="SourceAlpha" type="matrix" values="0 0 0 0 0 0 0 0 0 0 0 0 0 0 0 0 0 0 127 0" result="hardAlpha"/>
<feOffset dy="4"/>
<feGaussianBlur stdDeviation="2"/>
<feComposite in2="hardAlpha" operator="out"/>
<feColorMatrix type="matrix" values="0 0 0 0 0 0 0 0 0 0 0 0 0 0 0 0 0 0 0.1 0"/>
<feBlend mode="normal" in2="BackgroundImageFix" result="effect1_dropShadow_338_39"/>
<feBlend mode="normal" in="SourceGraphic" in2="effect1_dropShadow_338_39" result="shape"/>
</filter>
</defs>
</svg>
