<svg width="72" height="89" viewBox="0 0 72 89" fill="none" xmlns="http://www.w3.org/2000/svg">
<g filter="url(#filter0_d_338_41)">
<rect x="4" width="64" height="64" rx="20" fill="#DFB698"/>
</g>
<path d="M17.6944 82.928C15.3784 82.928 13.9144 83.684 13.9144 84.932C13.9144 86.168 15.3784 86.912 17.6944 86.912C19.9984 86.912 21.4744 86.168 21.4744 84.932C21.4744 83.684 19.9984 82.928 17.6944 82.928ZM17.6944 83.708C19.3984 83.708 20.4784 84.176 20.4784 84.932C20.4784 85.676 19.3984 86.144 17.6944 86.144C15.9904 86.144 14.8984 85.676 14.8984 84.932C14.8984 84.176 15.9904 83.708 17.6944 83.708ZM13.9984 76.628V77.444H20.9824V76.628H13.9984ZM12.8344 81.14V81.944H22.6264V81.14H12.8344ZM16.8544 79.052V81.368H17.8384V79.052H16.8544ZM20.4064 76.628V77.552C20.4064 78.404 20.4064 79.196 20.1064 80.312L21.0904 80.432C21.3784 79.304 21.3784 78.428 21.3784 77.552V76.628H20.4064ZM26.7414 77.636V79.4C26.7414 81.272 25.4334 83.312 23.8614 84.056L24.4374 84.848C26.1654 83.996 27.5454 81.692 27.5454 79.4V77.636H26.7414ZM26.9334 77.636V79.4C26.9334 81.656 28.3254 83.768 30.0774 84.584L30.6414 83.792C29.0454 83.108 27.7374 81.236 27.7374 79.4V77.636H26.9334ZM24.2214 77.192V78.032H30.2814V77.192H24.2214ZM31.7454 76.088V86.936H32.7414V76.088H31.7454ZM39.5355 76.532V80.228H46.8315V76.532H39.5355ZM45.8475 77.336V79.424H40.5075V77.336H45.8475ZM38.2755 81.584V82.388H48.0795V81.584H38.2755ZM42.6915 80.012V81.884H43.6755V80.012H42.6915ZM39.3675 83.504V84.32H45.8715V86.936H46.8675V83.504H39.3675ZM49.3146 82.052V82.868H59.1546V82.052H49.3146ZM50.5626 76.364V77.144H56.9106V78.26H50.5866V80.456H51.5706V78.992H57.8826V76.364H50.5626ZM50.5866 80.132V80.912H58.1226V80.132H50.5866ZM53.7306 80.54V82.46H54.7266V80.54H53.7306ZM50.4066 83.696V84.512H56.9586V86.84H57.9546V83.696H50.4066Z" fill="black"/>
<path d="M38.1815 20.6147C38.1815 19.1134 36.3109 18.4283 35.3412 19.573L30.9535 24.7597C30.7518 24.9976 30.5008 25.1888 30.2178 25.3199C29.9348 25.451 29.6267 25.5189 29.3148 25.5189H25.2954C24.1562 25.5189 23.0636 25.9715 22.2581 26.777C21.4525 27.5825 21 28.6751 21 29.8143V34.1097C21 35.2489 21.4525 36.3414 22.2581 37.147C23.0636 37.9525 24.1562 38.405 25.2954 38.405H29.3148C29.6267 38.4051 29.935 38.4732 30.2179 38.6045C30.5009 38.7358 30.7519 38.9272 30.9535 39.1653L35.3412 44.3509C36.3098 45.4956 38.1815 44.8105 38.1815 43.3093V20.6147ZM41.868 24.6341C41.9843 24.5541 42.1151 24.4979 42.2531 24.4685C42.3911 24.4392 42.5336 24.4373 42.6723 24.4631C42.811 24.4888 42.9433 24.5416 43.0616 24.6185C43.1799 24.6954 43.2819 24.7948 43.3617 24.9111C44.9349 27.1984 45.765 29.5544 45.765 31.962C45.765 34.3695 44.9349 36.7255 43.3617 39.0139C43.2825 39.1317 43.1807 39.2326 43.0623 39.3107C42.9438 39.3889 42.811 39.4428 42.6716 39.4694C42.5322 39.4959 42.3889 39.4946 42.25 39.4654C42.1111 39.4362 41.9794 39.3798 41.8624 39.2994C41.7454 39.219 41.6456 39.1162 41.5686 38.997C41.4916 38.8777 41.439 38.7444 41.4139 38.6047C41.3888 38.465 41.3916 38.3217 41.4221 38.1831C41.4527 38.0445 41.5105 37.9134 41.592 37.7972C42.9719 35.7892 43.6184 33.8498 43.6184 31.962C43.6184 30.0742 42.9719 28.1348 41.592 26.1278C41.4309 25.8931 41.3696 25.604 41.4216 25.3241C41.4735 25.0442 41.6345 24.7964 41.8691 24.6351L41.868 24.6341ZM46.4394 20.4461C46.3373 20.3488 46.217 20.2725 46.0855 20.2217C45.9539 20.1709 45.8136 20.1465 45.6726 20.1498C45.5316 20.1532 45.3927 20.1844 45.2637 20.2415C45.1347 20.2985 45.0183 20.3805 44.921 20.4826C44.8237 20.5847 44.7474 20.7049 44.6966 20.8365C44.6458 20.9681 44.6214 21.1083 44.6247 21.2493C44.6281 21.3903 44.6593 21.5293 44.7164 21.6583C44.7734 21.7872 44.8554 21.9037 44.9575 22.001C47.5207 24.4418 48.8534 28.1638 48.8534 31.962C48.8534 35.7612 47.5207 39.4821 44.9575 41.923C44.8554 42.0203 44.7734 42.1367 44.7164 42.2657C44.6593 42.3947 44.6281 42.5336 44.6247 42.6746C44.6214 42.8156 44.6458 42.9559 44.6966 43.0874C44.7474 43.219 44.8237 43.3393 44.921 43.4414C45.0183 43.5435 45.1347 43.6254 45.2637 43.6825C45.3927 43.7396 45.5316 43.7707 45.6726 43.7741C45.8136 43.7775 45.9539 43.7531 46.0855 43.7023C46.217 43.6514 46.3373 43.5752 46.4394 43.4779C49.5138 40.5495 51 36.2176 51 31.962C51 27.7063 49.5138 23.3744 46.4394 20.4461Z" fill="white"/>
<defs>
<filter id="filter0_d_338_41" x="0" y="0" width="72" height="72" filterUnits="userSpaceOnUse" color-interpolation-filters="sRGB">
<feFlood flood-opacity="0" result="BackgroundImageFix"/>
<feColorMatrix in="SourceAlpha" type="matrix" values="0 0 0 0 0 0 0 0 0 0 0 0 0 0 0 0 0 0 127 0" result="hardAlpha"/>
<feOffset dy="4"/>
<feGaussianBlur stdDeviation="2"/>
<feComposite in2="hardAlpha" operator="out"/>
<feColorMatrix type="matrix" values="0 0 0 0 0 0 0 0 0 0 0 0 0 0 0 0 0 0 0.1 0"/>
<feBlend mode="normal" in2="BackgroundImageFix" result="effect1_dropShadow_338_41"/>
<feBlend mode="normal" in="SourceGraphic" in2="effect1_dropShadow_338_41" result="shape"/>
</filter>
</defs>
</svg>
