<svg width="72" height="89" viewBox="0 0 72 89" fill="none" xmlns="http://www.w3.org/2000/svg">
<g filter="url(#filter0_d_338_29)">
<rect x="4" width="64" height="64" rx="20" fill="#DFDC98"/>
</g>
<path d="M12.8584 77.228V78.044H19.2664V77.228H12.8584ZM16.0624 78.596C14.5024 78.596 13.4584 79.364 13.4584 80.564C13.4584 81.752 14.5024 82.508 16.0624 82.508C17.5984 82.508 18.6544 81.752 18.6544 80.564C18.6544 79.364 17.5984 78.596 16.0624 78.596ZM16.0624 79.376C17.0344 79.376 17.7064 79.832 17.7064 80.564C17.7064 81.272 17.0344 81.74 16.0624 81.74C15.0664 81.74 14.4064 81.272 14.4064 80.564C14.4064 79.832 15.0664 79.376 16.0624 79.376ZM20.2504 76.088V82.868H21.2464V76.088H20.2504ZM20.9704 79.076V79.904H22.8544V79.076H20.9704ZM14.2024 83.456V84.272H20.2504V86.936H21.2464V83.456H14.2024ZM15.5584 76.028V77.684H16.5544V76.028H15.5584ZM26.1414 76.76V78.212C26.1414 79.436 25.2894 80.84 23.8614 81.464L24.4014 82.244C25.9974 81.536 26.9334 79.832 26.9334 78.212V76.76H26.1414ZM26.2974 76.76V78.212C26.2974 79.808 27.1974 81.308 28.7574 81.932L29.2974 81.176C27.9054 80.636 27.0894 79.412 27.0894 78.212V76.76H26.2974ZM32.0574 76.1V82.784H33.0054V76.1H32.0574ZM30.3294 78.992V79.808H32.3814V78.992H30.3294ZM29.7294 76.304V82.436H30.6774V76.304H29.7294ZM29.4414 83.024C27.1974 83.024 25.8294 83.744 25.8294 84.98C25.8294 86.204 27.1974 86.912 29.4414 86.912C31.6734 86.912 33.0654 86.204 33.0654 84.98C33.0654 83.744 31.6734 83.024 29.4414 83.024ZM29.4414 83.804C31.0734 83.804 32.0694 84.236 32.0694 84.98C32.0694 85.712 31.0734 86.144 29.4414 86.144C27.8094 86.144 26.8014 85.712 26.8014 84.98C26.8014 84.236 27.8094 83.804 29.4414 83.804ZM39.5355 76.532V80.228H46.8315V76.532H39.5355ZM45.8475 77.336V79.424H40.5075V77.336H45.8475ZM38.2755 81.584V82.388H48.0795V81.584H38.2755ZM42.6915 80.012V81.884H43.6755V80.012H42.6915ZM39.3675 83.504V84.32H45.8715V86.936H46.8675V83.504H39.3675ZM49.3146 82.052V82.868H59.1546V82.052H49.3146ZM50.5626 76.364V77.144H56.9106V78.26H50.5866V80.456H51.5706V78.992H57.8826V76.364H50.5626ZM50.5866 80.132V80.912H58.1226V80.132H50.5866ZM53.7306 80.54V82.46H54.7266V80.54H53.7306ZM50.4066 83.696V84.512H56.9586V86.84H57.9546V83.696H50.4066Z" fill="black"/>
<path d="M21 42.8182V39C21 38.2273 21.1991 37.5169 21.5973 36.8687C21.9955 36.2205 22.5236 35.7264 23.1818 35.3864C24.5909 34.6819 26.0227 34.1532 27.4773 33.8005C28.9318 33.4478 30.4091 33.2719 31.9091 33.2728C33.4091 33.2728 34.8864 33.4491 36.3409 33.8019C37.7955 34.1546 39.2273 34.6828 40.6364 35.3864C41.2955 35.7273 41.8241 36.2219 42.2223 36.87C42.6205 37.5182 42.8191 38.2282 42.8182 39V42.8182H21ZM45.5455 42.8182V38.7273C45.5455 37.7273 45.2668 36.7669 44.7095 35.8459C44.1523 34.925 43.3627 34.1355 42.3409 33.4773C43.5 33.6137 44.5909 33.8469 45.6136 34.1769C46.6364 34.5069 47.5909 34.91 48.4773 35.3864C49.2955 35.8409 49.9205 36.3464 50.3523 36.9028C50.7841 37.4591 51 38.0673 51 38.7273V42.8182H45.5455ZM31.9091 31.9091C30.4091 31.9091 29.125 31.375 28.0568 30.3069C26.9886 29.2387 26.4545 27.9546 26.4545 26.4546C26.4545 24.9546 26.9886 23.6705 28.0568 22.6023C29.125 21.5341 30.4091 21 31.9091 21C33.4091 21 34.6932 21.5341 35.7614 22.6023C36.8295 23.6705 37.3636 24.9546 37.3636 26.4546C37.3636 27.9546 36.8295 29.2387 35.7614 30.3069C34.6932 31.375 33.4091 31.9091 31.9091 31.9091ZM45.5455 26.4546C45.5455 27.9546 45.0114 29.2387 43.9432 30.3069C42.875 31.375 41.5909 31.9091 40.0909 31.9091C39.8409 31.9091 39.5227 31.8805 39.1364 31.8232C38.75 31.7659 38.4318 31.7037 38.1818 31.6364C38.7955 30.9091 39.2673 30.1023 39.5973 29.2159C39.9273 28.3296 40.0918 27.4091 40.0909 26.4546C40.0909 25.5 39.9264 24.5796 39.5973 23.6932C39.2682 22.8069 38.7964 22 38.1818 21.2728C38.5 21.1591 38.8182 21.085 39.1364 21.0505C39.4545 21.0159 39.7727 20.9991 40.0909 21C41.5909 21 42.875 21.5341 43.9432 22.6023C45.0114 23.6705 45.5455 24.9546 45.5455 26.4546Z" fill="white"/>
<defs>
<filter id="filter0_d_338_29" x="0" y="0" width="72" height="72" filterUnits="userSpaceOnUse" color-interpolation-filters="sRGB">
<feFlood flood-opacity="0" result="BackgroundImageFix"/>
<feColorMatrix in="SourceAlpha" type="matrix" values="0 0 0 0 0 0 0 0 0 0 0 0 0 0 0 0 0 0 127 0" result="hardAlpha"/>
<feOffset dy="4"/>
<feGaussianBlur stdDeviation="2"/>
<feComposite in2="hardAlpha" operator="out"/>
<feColorMatrix type="matrix" values="0 0 0 0 0 0 0 0 0 0 0 0 0 0 0 0 0 0 0.1 0"/>
<feBlend mode="normal" in2="BackgroundImageFix" result="effect1_dropShadow_338_29"/>
<feBlend mode="normal" in="SourceGraphic" in2="effect1_dropShadow_338_29" result="shape"/>
</filter>
</defs>
</svg>
