<svg width="72" height="89" viewBox="0 0 72 89" fill="none" xmlns="http://www.w3.org/2000/svg">
<g filter="url(#filter0_d_338_33)">
<rect x="4" width="64" height="64" rx="20" fill="#D9D9D9"/>
</g>
<path d="M20.496 76.088V86.936H21.492V76.088H20.496ZM17.316 77.252V77.42C17.316 80.3 15.864 82.604 12.732 84.116L13.26 84.92C16.884 83.144 18.3 80.396 18.3 77.252H17.316ZM13.224 77.252V78.068H17.748V77.252H13.224ZM24.9711 79.1V79.916H32.3271V79.1H24.9711ZM24.9711 76.304V79.46H25.9551V76.304H24.9711ZM23.6391 81.176V81.98H33.4431V81.176H23.6391ZM28.5231 82.952C26.2071 82.952 24.8031 83.66 24.8031 84.932C24.8031 86.18 26.2071 86.9 28.5231 86.9C30.8391 86.9 32.2431 86.18 32.2431 84.932C32.2431 83.66 30.8391 82.952 28.5231 82.952ZM28.5231 83.732C30.2271 83.732 31.2351 84.164 31.2351 84.932C31.2351 85.676 30.2271 86.108 28.5231 86.108C26.8311 86.108 25.8111 85.676 25.8111 84.932C25.8111 84.164 26.8311 83.732 28.5231 83.732ZM45.9251 76.076V86.948H46.9211V76.076H45.9251ZM41.1971 76.916C39.6011 76.916 38.4491 78.392 38.4491 80.696C38.4491 83.012 39.6011 84.488 41.1971 84.488C42.8051 84.488 43.9571 83.012 43.9571 80.696C43.9571 78.392 42.8051 76.916 41.1971 76.916ZM41.1971 77.816C42.2651 77.816 42.9971 78.944 42.9971 80.696C42.9971 82.46 42.2651 83.612 41.1971 83.612C40.1411 83.612 39.3971 82.46 39.3971 80.696C39.3971 78.944 40.1411 77.816 41.1971 77.816ZM49.0802 81.68V82.496H58.9202V81.68H49.0802ZM50.3282 76.352V77.132H56.6762V78.188H50.3522V80.36H51.3362V78.92H57.6482V76.352H50.3282ZM50.3522 79.976V80.756H57.8882V79.976H50.3522ZM50.4002 83.48V86.792H57.6602V83.48H50.4002ZM56.6882 84.272V85.988H51.3722V84.272H56.6882Z" fill="black"/>
<defs>
<filter id="filter0_d_338_33" x="0" y="0" width="72" height="72" filterUnits="userSpaceOnUse" color-interpolation-filters="sRGB">
<feFlood flood-opacity="0" result="BackgroundImageFix"/>
<feColorMatrix in="SourceAlpha" type="matrix" values="0 0 0 0 0 0 0 0 0 0 0 0 0 0 0 0 0 0 127 0" result="hardAlpha"/>
<feOffset dy="4"/>
<feGaussianBlur stdDeviation="2"/>
<feComposite in2="hardAlpha" operator="out"/>
<feColorMatrix type="matrix" values="0 0 0 0 0 0 0 0 0 0 0 0 0 0 0 0 0 0 0.1 0"/>
<feBlend mode="normal" in2="BackgroundImageFix" result="effect1_dropShadow_338_33"/>
<feBlend mode="normal" in="SourceGraphic" in2="effect1_dropShadow_338_33" result="shape"/>
</filter>
</defs>
</svg>
